<?xml version="1.0" standalone="no"?>
<!DOCTYPE svg PUBLIC "-//W3C//DTD SVG 20010904//EN"
 "http://www.w3.org/TR/2001/REC-SVG-20010904/DTD/svg10.dtd">
<svg version="1.0" xmlns="http://www.w3.org/2000/svg"
 width="4484.000000pt" height="3528.000000pt" viewBox="0 0 4484.000000 3528.000000"
 preserveAspectRatio="xMidYMid meet">

<g transform="translate(0.000000,3528.000000) scale(0.100000,-0.100000)"
fill="#000000" stroke="none">
<path d="M14360 33795 c0 -20 5 -25 25 -25 21 0 25 -5 25 -30 0 -25 4 -30 24
-30 24 0 36 -28 36 -86 0 -19 5 -24 24 -24 19 0 25 -6 28 -27 2 -22 9 -29 31
-31 25 -3 27 -6 28 -55 1 -41 3 -47 9 -27 l8 25 2 -25 2 -25 8 25 c7 23 8 23
9 3 1 -12 6 -25 11 -28 6 -3 10 -17 10 -31 0 -19 5 -24 25 -24 21 0 25 -5 25
-30 0 -25 4 -30 24 -30 22 0 25 -5 31 -55 7 -49 10 -55 31 -55 20 0 24 -5 24
-30 0 -27 3 -30 30 -30 25 0 30 -4 30 -24 0 -58 12 -86 36 -86 20 0 24 -5 24
-30 0 -25 4 -30 25 -30 20 0 25 -5 25 -25 0 -23 12 -31 42 -26 4 0 10 -24 13
-54 7 -49 10 -55 31 -55 20 0 24 -5 24 -30 0 -27 3 -30 30 -30 30 0 30 -1 30
-55 0 -54 0 -55 30 -55 27 0 30 -3 30 -30 0 -25 4 -30 24 -30 19 0 25 -6 28
-27 2 -20 9 -29 25 -31 17 -3 23 -12 28 -53 6 -43 10 -49 31 -49 20 0 24 -5
24 -30 0 -27 3 -30 30 -30 30 0 30 -1 30 -55 0 -54 0 -55 30 -55 27 0 30 -3
30 -30 0 -25 4 -30 25 -30 21 0 25 -5 25 -30 0 -25 4 -30 24 -30 22 0 25 -5
31 -55 7 -49 10 -55 30 -55 18 0 24 -6 27 -27 2 -22 9 -29 31 -31 25 -3 27 -6
27 -52 0 -46 2 -49 28 -52 21 -2 28 -9 30 -30 3 -22 9 -28 28 -28 20 0 24 -5
24 -30 0 -25 4 -30 24 -30 22 0 25 -5 31 -55 7 -49 10 -55 30 -55 18 0 24 -6
27 -27 2 -22 9 -29 31 -31 25 -3 27 -6 27 -52 0 -46 2 -49 28 -52 21 -2 28 -9
30 -30 3 -22 9 -28 28 -28 20 0 24 -5 24 -30 0 -25 4 -30 24 -30 22 0 25 -5
31 -55 7 -49 10 -55 31 -55 20 0 24 -5 24 -30 0 -27 3 -30 30 -30 30 0 30 -1
30 -55 0 -54 0 -55 30 -55 27 0 30 -3 30 -30 0 -25 4 -30 24 -30 19 0 25 -6
28 -27 2 -20 9 -29 25 -31 19 -3 24 -12 29 -53 6 -43 9 -49 30 -49 20 0 24 -5
24 -30 0 -27 3 -30 30 -30 30 0 30 -1 30 -55 0 -54 0 -55 30 -55 27 0 30 -3
30 -30 0 -25 4 -30 25 -30 21 0 25 -5 25 -30 0 -25 4 -30 24 -30 22 0 25 -5
31 -53 6 -50 9 -54 31 -49 21 4 24 1 24 -27 0 -20 5 -31 15 -32 8 -1 21 -2 28
-3 7 -1 13 -21 15 -53 3 -48 5 -52 30 -55 21 -2 28 -9 30 -30 3 -22 9 -28 28
-28 19 0 24 -5 24 -25 0 -14 8 -38 18 -52 9 -15 11 -24 5 -20 -8 5 -13 3 -13
-3 0 -6 10 -10 23 -8 18 2 23 -2 25 -29 3 -27 8 -33 27 -33 18 0 24 -6 27 -27
2 -22 9 -29 31 -31 25 -3 27 -6 27 -52 0 -46 2 -49 28 -52 21 -2 28 -9 30 -30
3 -22 9 -28 26 -28 20 0 24 -6 30 -49 5 -41 10 -50 29 -53 17 -2 23 -11 25
-35 3 -27 8 -33 27 -33 18 0 24 -6 27 -27 2 -22 9 -29 30 -31 25 -3 27 -7 30
-55 3 -48 5 -52 31 -55 21 -3 27 -9 27 -28 0 -19 5 -24 24 -24 21 0 24 -6 31
-52 5 -33 10 -44 12 -30 3 12 11 22 20 22 11 0 14 -7 11 -25 -3 -14 -1 -25 3
-25 5 0 9 -13 9 -30 0 -25 4 -30 25 -30 21 0 25 -5 25 -30 0 -27 3 -30 30 -30
30 0 30 -1 30 -55 0 -54 0 -55 30 -55 27 0 30 -3 30 -30 0 -25 4 -30 24 -30
21 0 24 -6 30 -49 5 -41 10 -50 29 -53 16 -2 23 -11 25 -30 3 -22 9 -28 28
-28 20 0 24 -5 24 -30 0 -27 3 -30 30 -30 30 0 30 -1 30 -55 0 -54 0 -55 30
-55 27 0 30 -3 30 -30 0 -25 4 -30 25 -30 21 0 25 -5 25 -30 0 -16 4 -30 9
-30 4 0 6 -11 3 -25 -4 -22 -1 -25 22 -25 22 0 26 -4 26 -30 0 -25 4 -30 24
-30 19 0 25 -6 28 -27 2 -22 9 -29 31 -31 25 -3 27 -6 27 -52 0 -46 2 -49 28
-52 21 -2 28 -9 30 -30 3 -22 9 -28 27 -28 20 0 23 -6 30 -55 6 -50 9 -55 31
-55 20 0 24 -5 24 -30 0 -25 4 -30 24 -30 19 0 25 -6 28 -27 2 -22 9 -29 31
-31 25 -3 27 -6 27 -52 0 -46 2 -49 28 -52 21 -2 28 -9 30 -30 2 -19 10 -28
25 -30 18 -2 24 -12 31 -55 8 -46 12 -53 32 -53 20 0 24 -5 24 -30 0 -25 4
-30 24 -30 19 0 25 -6 28 -27 2 -22 9 -29 30 -31 25 -3 27 -7 30 -55 3 -48 5
-52 31 -55 23 -3 27 -8 27 -33 0 -24 4 -29 24 -29 21 0 25 -6 31 -49 5 -41 11
-50 28 -53 16 -2 23 -11 25 -30 3 -22 9 -28 28 -28 20 0 24 -5 24 -30 0 -27 3
-30 30 -30 30 0 30 -1 30 -55 0 -54 0 -55 30 -55 27 0 30 -3 30 -30 0 -25 4
-30 24 -30 21 0 24 -6 30 -49 5 -41 10 -50 29 -53 16 -2 23 -11 25 -30 3 -22
9 -28 28 -28 20 0 24 -5 24 -30 0 -27 3 -30 30 -30 30 0 30 -1 30 -55 0 -54 0
-55 30 -55 27 0 30 -3 30 -30 0 -25 4 -30 24 -30 21 0 24 -6 31 -55 6 -50 9
-55 31 -55 20 0 24 -5 24 -30 0 -25 4 -30 24 -30 19 0 25 -6 28 -27 2 -22 9
-29 31 -31 25 -3 27 -6 27 -52 0 -46 2 -49 28 -52 21 -2 28 -9 30 -30 3 -22 9
-28 27 -28 20 0 23 -6 30 -55 6 -50 9 -55 31 -55 20 0 24 -5 24 -30 0 -25 4
-30 25 -30 17 0 25 -6 25 -17 0 -10 7 -36 15 -58 13 -36 14 -37 15 -12 0 17 5
27 14 27 11 0 16 -15 18 -52 3 -49 5 -53 31 -56 21 -3 27 -9 27 -28 0 -17 5
-24 20 -24 25 0 32 -17 39 -102 1 -5 12 -8 26 -8 21 0 25 -5 25 -30 0 -25 4
-30 24 -30 21 0 24 -6 30 -49 4 -31 12 -51 22 -55 24 -9 27 -7 14 9 -10 12
-10 19 -2 27 7 7 13 9 13 5 1 -4 3 -11 4 -17 1 -5 3 -28 4 -50 1 -37 3 -40 31
-40 27 0 30 -3 30 -30 0 -25 4 -30 24 -30 20 0 24 -6 30 -41 4 -22 4 -44 1
-49 -3 -5 7 -10 22 -12 22 -2 29 -9 31 -30 3 -22 9 -28 28 -28 20 0 24 -5 24
-30 0 -20 5 -30 15 -30 8 0 15 -8 15 -17 0 -16 -2 -16 -11 -3 -9 13 -10 13 -6
0 2 -8 10 -14 16 -12 6 1 11 -3 11 -9 0 -5 5 -7 10 -4 6 4 10 -8 10 -29 0 -33
2 -36 30 -36 27 0 30 -3 30 -30 0 -25 4 -30 24 -30 23 0 25 -4 28 -52 2 -33 8
-53 16 -54 6 -1 19 -2 27 -3 9 0 15 -11 15 -26 0 -20 5 -25 24 -25 21 0 24 -6
31 -55 6 -50 9 -55 31 -55 24 0 24 -2 24 -84 l0 -85 -27 -3 c-22 -2 -29 -9
-31 -30 -3 -22 -9 -28 -28 -28 -22 0 -24 -3 -24 -54 0 -52 -1 -55 -27 -58 -26
-3 -28 -7 -31 -55 -3 -48 -5 -53 -26 -53 -21 0 -24 -6 -31 -55 -6 -50 -9 -55
-31 -55 -22 0 -24 -3 -24 -54 0 -52 -1 -55 -27 -58 -23 -2 -29 -8 -31 -35 -3
-27 -8 -33 -27 -33 -22 0 -24 -5 -27 -52 -3 -49 -5 -53 -30 -56 -27 -3 -28 -6
-28 -58 0 -51 -2 -54 -24 -54 -22 0 -25 -5 -31 -55 -7 -49 -10 -55 -31 -55
-20 0 -24 -5 -24 -30 0 -25 -4 -30 -24 -30 -22 0 -25 -5 -31 -55 -7 -49 -10
-55 -31 -55 -22 0 -24 -4 -24 -55 0 -54 0 -55 -30 -55 -30 0 -30 -1 -30 -55 0
-51 -2 -55 -24 -55 -21 0 -24 -6 -31 -55 -5 -47 -10 -55 -27 -55 -18 0 -19 2
-7 18 13 15 12 16 -3 3 -11 -8 -18 -27 -18 -47 0 -29 -3 -34 -24 -34 -21 0
-24 -6 -31 -55 -6 -50 -9 -55 -31 -55 -21 0 -24 -5 -25 -35 -1 -19 -3 -39 -4
-45 -1 -5 -3 -14 -4 -20 0 -5 -12 -10 -26 -10 -24 0 -25 -3 -25 -55 0 -52 -1
-55 -24 -55 -21 0 -25 -6 -28 -32 -2 -27 -8 -34 -30 -36 -25 -3 -27 -7 -30
-55 -3 -47 -5 -52 -24 -49 -20 3 -23 -3 -29 -58 -6 -53 -9 -60 -29 -60 -19 0
-24 -8 -32 -52 -7 -44 -13 -54 -31 -56 -23 -3 -29 -25 -23 -89 1 -18 -4 -23
-24 -23 -20 0 -25 -6 -28 -27 -2 -22 -9 -29 -30 -31 -27 -3 -28 -6 -28 -58 0
-54 0 -54 -31 -54 -16 0 -28 -4 -25 -9 3 -5 3 -30 0 -55 -6 -39 -10 -46 -29
-46 -20 0 -24 -7 -30 -55 -6 -50 -9 -55 -31 -55 -20 0 -24 -5 -24 -30 0 -25
-4 -30 -25 -30 -24 0 -25 -3 -25 -55 0 -54 0 -55 -30 -55 -30 0 -30 -1 -30
-54 0 -52 -1 -55 -27 -58 -26 -3 -28 -7 -31 -55 -3 -49 -5 -53 -28 -53 -20 0
-24 -5 -24 -30 0 -16 -4 -30 -9 -30 -5 0 -12 -10 -14 -22 l-4 -23 -2 23 c0 12
-6 22 -12 22 -7 0 -9 -10 -7 -25 3 -14 2 -25 -3 -25 -4 0 -9 -15 -11 -32 -2
-25 -8 -34 -25 -36 -20 -3 -23 -10 -24 -45 -1 -23 -1 -45 0 -49 0 -5 -12 -8
-29 -8 -30 0 -30 -1 -30 -54 0 -52 -1 -55 -27 -58 -26 -3 -28 -7 -31 -55 -3
-49 -5 -53 -28 -53 -21 0 -24 -5 -24 -35 0 -30 -3 -35 -24 -35 -22 0 -25 -5
-31 -55 -7 -49 -10 -55 -30 -55 -21 0 -24 -6 -30 -55 -7 -49 -10 -55 -31 -55
-22 0 -24 -4 -24 -55 0 -54 0 -55 -30 -55 -27 0 -30 -3 -30 -29 0 -23 -5 -30
-22 -33 -23 -3 -25 -7 -27 -75 -1 -28 -5 -33 -25 -33 -22 0 -25 -5 -31 -55 -6
-48 -10 -55 -30 -55 -20 0 -24 -7 -30 -55 -6 -49 -9 -55 -30 -55 -22 0 -24 -5
-27 -52 -3 -45 -6 -53 -23 -53 -24 0 -35 -13 -35 -42 0 -18 -6 -23 -25 -23
-24 0 -25 -3 -25 -54 0 -52 -1 -55 -27 -58 -26 -3 -28 -7 -31 -55 -3 -48 -5
-53 -26 -53 -21 0 -24 -6 -31 -55 -6 -50 -9 -55 -31 -55 -21 0 -24 -5 -24 -35
0 -30 -3 -35 -24 -35 -22 0 -25 -5 -31 -55 -7 -49 -10 -55 -31 -55 -19 0 -24
-5 -24 -25 l0 -25 -550 0 c-532 0 -550 -1 -550 -19 0 -13 -9 -20 -32 -25 -18
-3 -305 -8 -638 -11 -333 -3 -621 -8 -640 -11 -30 -5 -32 -7 -16 -16 15 -8 16
-12 5 -19 -8 -5 -239 -9 -515 -9 -275 0 -569 -3 -652 -7 -133 -5 -152 -8 -152
-23 0 -15 -20 -18 -167 -23 -91 -4 -380 -7 -642 -8 -262 0 -483 -3 -491 -7 -8
-4 -15 -14 -15 -22 0 -13 -70 -16 -545 -21 -300 -3 -600 -7 -667 -8 l-123 -1
0 -25 0 -25 -665 0 c-650 0 -665 0 -665 -19 0 -11 8 -22 18 -24 9 -3 -39 -5
-108 -6 -69 -1 -230 -4 -357 -8 l-233 -6 0 -54 c0 -50 1 -53 25 -53 l25 0 1
-152 c1 -84 4 -198 8 -253 6 -96 7 -100 29 -97 l22 3 0 -256 0 -255 25 6 c25
6 25 5 26 -57 1 -35 3 -73 4 -84 1 -11 2 -98 3 -192 l2 -173 25 0 25 0 0 -173
c0 -96 3 -209 6 -251 6 -66 9 -76 24 -71 14 5 18 -4 23 -47 4 -29 7 -70 7 -90
l0 -38 175 0 175 0 -10 25 -10 25 219 0 c120 0 286 3 369 7 151 6 152 6 152
30 0 33 28 29 33 -4 l4 -28 2 28 1 27 370 0 c358 0 370 1 370 19 0 11 -6 21
-12 23 -19 7 327 18 546 18 187 1 220 6 224 35 1 6 132 12 354 16 436 8 398 5
398 27 0 17 12 20 113 25 61 4 229 7 372 7 151 0 266 4 275 10 10 6 11 10 3
10 -7 0 -13 4 -13 10 0 5 7 6 17 3 11 -4 14 -3 9 5 -5 9 42 12 191 12 109 0
276 3 371 7 172 6 172 6 172 30 l0 23 365 0 365 0 0 25 c0 24 2 25 78 26 42 1
219 4 392 8 l315 6 -3 23 -3 22 280 0 281 0 0 -25 c0 -20 -5 -25 -24 -25 -21
0 -24 -6 -31 -55 -6 -55 -25 -77 -25 -30 0 14 -5 25 -11 25 -7 0 -9 -10 -7
-25 3 -13 1 -22 -3 -19 -5 3 -9 -12 -9 -34 0 -34 -3 -38 -22 -38 -20 1 -24 -6
-32 -51 -8 -46 -12 -53 -31 -53 -20 0 -24 -7 -29 -54 -6 -46 -11 -55 -29 -58
-17 -2 -23 -11 -25 -35 -3 -27 -7 -33 -28 -33 -22 0 -24 -4 -24 -50 0 -49 -1
-50 -30 -50 -30 0 -30 -1 -30 -54 0 -52 -1 -55 -27 -58 -23 -2 -29 -8 -31 -35
-2 -24 -8 -33 -22 -33 -15 0 -20 -11 -27 -52 -4 -30 -14 -54 -21 -54 -6 -1
-19 -2 -27 -3 -11 -1 -15 -14 -15 -56 0 -51 -2 -55 -24 -55 -21 0 -25 -6 -31
-50 -6 -44 -10 -50 -31 -50 -21 0 -24 -5 -24 -35 0 -30 -3 -35 -24 -35 -22 0
-25 -5 -31 -55 -6 -48 -10 -55 -30 -55 -20 0 -24 -7 -30 -55 -4 -33 -11 -55
-18 -54 -29 4 -37 -3 -37 -31 0 -25 -4 -30 -24 -30 -23 0 -25 -4 -28 -52 -3
-49 -5 -53 -30 -56 -27 -3 -28 -6 -28 -58 0 -54 0 -54 -30 -54 -19 0 -30 -5
-29 -12 1 -7 1 -32 0 -55 -1 -39 -3 -43 -26 -43 -21 0 -25 -5 -25 -30 0 -25
-4 -30 -24 -30 -22 0 -25 -5 -31 -55 -6 -48 -10 -55 -30 -55 -20 0 -24 -7 -30
-55 -6 -50 -9 -55 -31 -55 -20 0 -24 -5 -24 -30 0 -25 -4 -30 -24 -30 -22 0
-25 -5 -31 -55 -7 -49 -10 -55 -31 -55 -22 0 -24 -4 -24 -55 0 -54 0 -55 -30
-55 -30 0 -30 -1 -30 -55 0 -52 -2 -55 -24 -55 -19 0 -25 -6 -28 -27 -2 -22
-9 -29 -30 -31 -27 -3 -28 -6 -28 -58 0 -51 -2 -54 -24 -54 -22 0 -25 -5 -31
-55 -7 -49 -10 -55 -31 -55 -20 0 -24 -5 -24 -30 0 -25 -4 -30 -24 -30 -22 0
-25 -5 -31 -55 -6 -48 -10 -55 -30 -55 -20 0 -24 -7 -30 -55 -6 -50 -9 -55
-31 -55 -22 0 -24 -4 -24 -45 0 -25 1 -48 3 -52 1 -4 -11 -10 -28 -13 -24 -4
-31 -11 -33 -33 -3 -21 -9 -27 -28 -27 -22 0 -24 -3 -24 -54 0 -52 -1 -55 -27
-58 -26 -3 -28 -7 -31 -55 -3 -49 -5 -53 -28 -53 -20 0 -24 -5 -24 -30 0 -27
-3 -30 -30 -30 -30 0 -30 -1 -30 -55 0 -52 -2 -55 -24 -55 -22 0 -25 -5 -31
-55 -7 -49 -10 -55 -31 -55 -20 0 -24 -5 -24 -30 0 -16 -4 -30 -9 -30 -5 0
-12 -10 -14 -22 l-4 -23 -2 23 c-2 43 -20 22 -26 -33 -6 -48 -10 -55 -30 -55
-20 0 -24 -7 -30 -55 -6 -50 -9 -55 -31 -55 -22 0 -24 -3 -24 -54 0 -52 -1
-55 -27 -58 -23 -2 -29 -8 -31 -35 -3 -27 -7 -33 -28 -33 -22 0 -24 -4 -24
-49 0 -47 -2 -50 -27 -53 -26 -3 -28 -7 -31 -55 -3 -48 -5 -53 -26 -53 -21 0
-24 -6 -31 -55 -6 -50 -9 -55 -31 -55 -21 0 -24 -5 -24 -35 0 -30 -3 -35 -24
-35 -22 0 -25 -5 -31 -55 -6 -48 -10 -55 -30 -55 -19 0 -23 -7 -29 -49 -5 -41
-10 -50 -29 -53 -17 -2 -23 -11 -25 -35 -3 -27 -8 -33 -27 -33 -22 0 -24 -5
-27 -52 -3 -49 -5 -53 -30 -56 -27 -3 -28 -6 -28 -58 0 -55 0 -55 -27 -52 -27
3 -28 2 -31 -54 -3 -49 -6 -58 -22 -58 -13 0 -20 9 -23 28 -2 15 -5 1 -6 -30
-1 -54 -2 -57 -28 -60 -26 -3 -28 -7 -31 -55 -3 -48 -5 -53 -27 -53 -21 0 -24
-6 -30 -55 -7 -49 -10 -55 -31 -55 -20 0 -24 -5 -24 -30 0 -25 -4 -30 -24 -30
-22 0 -25 -5 -31 -55 -7 -49 -10 -55 -31 -55 -22 0 -24 -4 -24 -55 0 -55 0
-55 -31 -55 -26 0 -30 -3 -27 -22 3 -21 10 -24 73 -30 88 -8 3028 -10 3049 -2
12 4 16 20 16 55 0 45 2 49 23 49 21 0 25 6 33 58 8 50 12 57 32 56 20 -1 22
4 22 58 0 58 0 58 30 58 30 0 30 0 30 56 0 55 1 56 25 52 23 -5 25 -2 25 28 0
29 3 34 24 34 22 0 25 5 31 55 7 49 10 55 31 55 21 0 23 5 26 58 3 56 4 57 31
54 27 -3 27 -3 27 51 0 50 2 55 24 61 21 5 26 14 31 61 7 49 10 55 31 55 21 0
23 5 26 53 3 48 5 52 31 55 26 3 27 6 27 58 0 50 2 54 24 54 21 0 24 6 31 55
6 50 9 55 31 55 21 0 24 4 25 43 1 23 1 47 0 54 -1 6 11 13 26 15 22 2 29 9
31 31 3 21 8 27 28 27 20 0 25 5 24 23 -6 65 0 87 24 93 24 6 36 36 36 90 0
19 5 24 25 24 26 0 27 2 30 80 0 19 7 26 28 28 26 3 27 6 27 58 0 53 1 54 28
54 22 0 28 5 29 23 2 85 2 87 27 87 21 0 24 6 31 55 6 50 9 55 31 55 22 0 24
3 24 55 0 51 2 55 24 55 21 0 24 6 31 55 6 50 9 55 31 55 21 0 24 5 24 35 0
30 3 35 24 35 22 0 25 5 31 55 7 49 10 55 31 55 22 0 24 4 24 55 0 52 2 55 24
55 22 0 25 5 31 55 6 48 10 55 30 55 20 0 24 7 30 55 6 50 9 55 31 55 22 0 24
3 24 54 0 52 1 55 28 58 25 3 27 7 30 56 3 47 5 52 26 52 21 0 24 6 30 54 6
46 11 55 29 58 19 3 22 10 25 56 3 48 5 52 28 52 19 0 24 5 24 24 0 33 10 57
21 50 5 -3 9 6 9 20 0 16 6 26 15 26 10 0 15 10 15 30 0 25 4 30 24 30 22 0
25 5 31 55 7 49 10 55 31 55 22 0 24 4 24 55 0 54 0 55 30 55 30 0 30 1 30 55
0 51 2 55 24 55 21 0 24 6 31 55 6 50 9 55 31 55 22 0 24 3 24 54 0 52 1 55
28 58 25 3 27 7 30 56 3 47 5 52 26 52 21 0 24 6 30 60 6 55 9 60 31 60 21 0
25 5 25 30 0 25 4 30 25 30 31 0 33 17 3 23 l-23 4 23 2 c19 1 22 7 22 41 0
38 2 40 30 40 30 0 30 1 30 55 0 51 2 55 24 55 21 0 24 6 31 55 6 50 9 55 31
55 22 0 24 3 24 54 0 52 1 55 28 58 26 3 27 6 30 61 3 53 5 57 27 57 21 0 24
6 30 55 7 49 10 55 31 55 22 0 24 4 24 55 l0 55 54 0 c52 0 55 -1 58 -27 2
-20 10 -29 28 -33 22 -5 25 -12 28 -58 3 -47 5 -52 26 -52 21 0 24 -6 31 -55
6 -50 9 -55 31 -55 22 0 24 -3 24 -55 0 -51 2 -55 24 -55 22 0 25 -5 31 -60 6
-55 9 -60 31 -60 22 0 24 -4 24 -42 0 -24 3 -60 6 -80 6 -32 11 -38 30 -38 22
0 24 -4 24 -55 0 -52 1 -55 25 -55 22 0 24 -4 27 -57 3 -55 4 -58 31 -61 27
-3 27 -4 27 -82 0 -78 0 -79 28 -82 25 -3 27 -7 30 -55 3 -48 5 -53 27 -53 22
0 24 -4 27 -57 3 -51 6 -58 25 -61 18 -3 23 -12 29 -58 6 -48 9 -54 30 -54 22
0 24 -4 25 -47 1 -27 1 -51 0 -55 0 -5 13 -8 29 -8 30 0 30 -1 30 -55 0 -51 2
-55 24 -55 21 0 24 -6 31 -55 6 -49 9 -55 30 -55 19 0 24 -6 27 -32 2 -25 8
-34 25 -36 19 -3 24 -12 29 -53 6 -43 9 -49 30 -49 20 0 24 -5 24 -30 0 -27 3
-30 30 -30 30 0 30 -1 30 -55 0 -54 0 -55 30 -55 27 0 30 -3 30 -30 0 -25 4
-30 25 -30 20 0 25 -5 25 -24 0 -19 6 -25 28 -28 21 -2 28 -9 30 -30 3 -22 9
-28 27 -28 18 0 24 -6 27 -27 2 -22 9 -29 31 -31 21 -3 27 -9 27 -27 0 -18 6
-24 28 -27 21 -2 28 -9 30 -30 3 -22 9 -28 28 -28 19 0 24 -5 24 -25 0 -21 5
-25 30 -25 27 0 30 -3 30 -30 0 -27 3 -30 30 -30 25 0 30 -4 30 -24 0 -21 6
-25 50 -31 44 -6 50 -10 50 -31 0 -20 5 -24 29 -24 25 0 30 -4 33 -27 3 -26 7
-28 55 -31 48 -3 52 -5 55 -30 3 -23 7 -27 31 -24 24 3 27 0 27 -27 0 -31 0
-31 54 -31 52 0 55 -1 58 -27 3 -26 7 -28 56 -31 48 -3 52 -5 52 -28 0 -20 5
-24 30 -24 25 0 30 -4 30 -25 0 -22 5 -25 60 -31 55 -6 60 -9 60 -30 0 -22 5
-24 48 -25 78 -2 107 -11 110 -37 3 -20 9 -22 58 -22 50 0 54 -2 54 -24 0 -23
5 -25 65 -31 36 -4 63 -10 61 -14 -2 -3 2 -12 10 -19 11 -10 14 -10 14 0 1 8
5 7 14 -4 10 -13 27 -18 64 -18 46 0 52 -3 58 -24 6 -26 40 -36 122 -36 38 0
42 -2 42 -25 0 -24 2 -25 70 -26 39 -1 75 -3 80 -4 6 -1 24 -3 40 -4 25 -1 30
-5 30 -26 0 -25 1 -25 84 -25 80 0 85 -1 88 -22 4 -28 32 -35 152 -37 l88 -1
-6 -25 -6 -25 97 0 c135 0 171 -7 175 -34 3 -24 1 -24 171 -25 l117 -1 0 -25
0 -25 128 -1 c184 -1 225 -8 233 -39 6 -25 6 -25 11 5 l5 30 2 -27 1 -28 200
0 200 0 0 -25 c0 -25 1 -25 84 -25 l83 0 -5 25 -4 25 91 0 c89 0 91 1 91 24 0
20 6 24 46 30 26 3 76 6 112 6 63 0 64 0 60 25 -5 24 -4 25 52 25 87 0 118 9
122 34 3 19 10 21 86 24 80 3 82 3 82 27 0 23 4 25 48 25 26 0 64 3 85 6 31 6
37 11 37 30 0 23 3 24 79 24 75 0 80 1 83 22 3 26 32 35 116 37 49 1 52 3 52
26 0 23 4 25 48 25 26 0 64 3 85 6 30 6 37 11 37 30 0 21 5 23 63 26 56 3 62
5 65 26 3 18 10 22 40 22 20 0 54 3 75 6 31 6 37 11 37 30 0 22 4 24 55 24 52
0 55 2 55 24 0 23 5 25 68 32 37 4 73 7 80 5 7 -1 12 8 12 22 0 22 5 25 60 31
55 6 60 9 60 31 0 24 3 25 55 25 51 0 55 2 55 24 0 21 6 24 55 31 50 6 55 9
55 31 0 22 3 24 54 24 52 0 55 1 58 27 2 22 9 29 33 33 22 4 30 11 30 25 0 17
8 20 52 23 48 3 52 5 55 30 3 25 7 27 56 30 48 3 52 5 52 28 0 20 5 24 30 24
27 0 30 3 30 30 0 30 1 30 54 30 52 0 55 1 58 28 2 21 9 28 31 30 21 3 27 9
27 28 0 20 5 24 30 24 25 0 30 4 30 24 0 21 6 25 49 31 44 6 50 10 53 33 2 21
9 28 31 30 21 3 27 9 27 28 0 20 5 24 30 24 27 0 30 3 30 30 0 27 3 30 30 30
25 0 30 4 30 25 0 20 5 25 24 25 19 0 25 6 28 28 2 21 9 28 31 30 21 3 27 9
27 28 0 19 5 24 25 24 20 0 27 6 32 30 4 23 11 30 29 30 20 0 24 5 24 30 0 27
3 30 30 30 25 0 30 4 30 25 0 20 5 25 25 25 21 0 25 5 25 30 0 27 3 30 30 30
26 0 30 4 29 23 -1 12 -1 37 -1 55 2 29 5 32 32 32 27 0 30 3 30 30 0 25 4 30
25 30 21 0 25 5 25 30 0 25 4 30 24 30 21 0 25 6 31 50 6 44 10 50 31 50 20 0
24 5 24 30 0 17 5 30 11 30 7 0 9 10 7 24 -4 18 -1 23 16 22 17 -1 22 6 24 32
3 26 8 32 27 32 22 0 24 4 27 58 3 54 4 57 31 60 26 3 27 6 27 58 0 50 2 54
24 54 19 0 24 6 30 37 3 21 6 57 6 81 0 38 2 42 25 42 22 0 24 4 27 58 3 49 6
57 24 60 24 3 34 40 34 125 0 43 2 47 25 47 24 0 25 2 25 64 0 35 3 84 6 110
6 40 10 46 30 46 l24 0 0 140 0 140 24 0 c22 0 23 4 29 83 4 45 7 144 7 219 0
134 0 137 23 140 l22 3 3 515 c2 283 0 534 -3 558 -5 33 -10 42 -26 42 -18 0
-19 8 -19 138 0 170 -10 333 -21 327 -4 -3 -15 2 -23 11 -12 12 -16 37 -16
110 l0 94 73 0 c39 0 102 -3 139 -6 58 -6 68 -10 71 -28 4 -20 4 -20 6 2 1 26
21 30 21 3 0 -16 11 -19 83 -24 45 -4 139 -7 210 -7 l127 0 0 30 c0 25 4 30
24 30 21 0 24 6 31 55 6 50 9 55 31 55 22 0 24 3 24 55 0 54 0 55 30 55 27 0
30 3 30 30 0 25 4 30 25 30 24 0 25 3 25 55 0 52 2 55 24 55 22 0 25 5 31 55
7 49 10 55 31 55 21 0 23 5 26 58 3 54 4 57 31 60 26 3 27 6 27 58 0 51 2 54
24 54 22 0 25 5 31 55 7 49 10 55 31 55 22 0 24 4 24 55 0 54 0 55 30 55 30 0
30 1 30 55 0 52 1 55 25 55 22 0 24 4 27 58 3 55 4 57 31 57 26 -1 27 1 27 57
0 55 1 58 24 58 22 0 25 5 31 55 7 49 10 55 31 55 22 0 24 4 24 43 0 79 11
116 34 119 18 3 21 11 24 61 3 52 5 57 26 57 21 0 24 6 31 55 6 50 9 55 31 55
23 0 24 3 24 60 0 56 1 60 24 60 19 0 24 6 30 38 3 20 6 56 6 80 0 38 2 42 25
42 24 0 25 3 25 55 0 51 2 55 24 55 19 0 24 6 30 38 3 20 6 58 6 85 0 43 2 47
25 47 21 0 25 5 26 33 4 84 3 82 32 85 27 3 27 4 27 83 0 76 1 79 24 79 19 0
24 6 30 38 3 20 6 56 6 80 0 38 2 42 25 42 24 0 25 3 25 60 0 56 1 60 24 60
20 0 24 6 30 46 3 26 6 64 6 85 0 35 3 39 25 39 23 0 25 4 25 48 0 26 3 64 6
85 6 31 11 37 30 37 23 0 24 2 24 85 0 75 2 85 18 85 14 0 21 13 30 58 7 32
12 79 12 105 0 43 2 47 25 47 24 0 24 2 27 88 3 80 5 87 24 90 26 4 34 40 34
150 0 70 1 72 25 72 24 0 25 2 25 73 0 115 8 147 36 147 24 0 24 1 24 115 0
114 0 115 24 115 22 0 23 4 29 83 4 45 7 120 7 166 l0 83 25 -4 25 -5 0 131
c0 141 6 180 25 172 21 -8 35 112 35 303 l0 181 24 0 23 0 5 395 c3 217 3 573
0 790 l-5 395 -23 0 -24 0 0 143 c0 79 -3 178 -6 219 -6 67 -9 75 -25 71 -11
-3 -20 -4 -20 -2 -1 2 -5 67 -8 144 -6 135 -7 140 -28 143 -21 3 -23 8 -23 71
0 38 -3 89 -6 115 -6 40 -10 46 -30 46 -24 0 -24 1 -24 103 -1 84 -3 99 -13
85 -11 -14 -15 -13 -30 14 -12 21 -17 52 -17 109 0 78 0 79 -25 79 -23 0 -25
4 -25 43 0 58 -11 117 -21 117 -5 0 -10 -10 -10 -22 -1 -21 -2 -21 -6 -3 -3
11 -9 24 -14 29 -5 6 -9 34 -9 63 0 50 -1 53 -25 53 -23 0 -25 4 -25 43 0 23
-3 59 -6 80 -6 31 -11 37 -30 37 -23 0 -24 4 -24 60 0 57 -1 60 -24 60 -22 0
-25 5 -31 55 -7 49 -10 55 -31 55 -21 0 -23 5 -26 58 -3 50 -6 57 -25 60 -18
3 -23 12 -29 58 -5 47 -9 54 -29 54 -20 0 -24 7 -30 55 -6 50 -9 55 -31 55
-22 0 -24 3 -24 55 0 54 0 55 -30 55 -30 0 -30 0 -30 56 0 55 -1 56 -25 52
-23 -5 -25 -2 -25 28 0 29 -3 34 -24 34 -24 0 -36 28 -36 86 0 19 -5 24 -24
24 -19 0 -25 6 -28 28 -2 21 -9 28 -30 30 -27 3 -28 6 -28 58 0 55 0 55 -27
52 -25 -3 -28 1 -31 30 -3 26 -8 32 -27 32 -20 0 -24 6 -30 49 -5 41 -11 50
-28 53 -16 2 -23 11 -25 31 -3 21 -9 27 -28 27 -20 0 -24 5 -24 30 0 27 -3 30
-30 30 -30 0 -30 1 -30 55 0 54 0 55 -30 55 -27 0 -30 3 -30 30 0 25 -4 30
-25 30 -20 0 -25 5 -25 24 0 19 -6 25 -27 28 -22 2 -29 9 -31 31 -3 21 -9 27
-27 27 -18 0 -24 6 -27 28 -2 21 -9 28 -30 30 -26 3 -28 6 -28 52 0 46 -2 49
-27 52 -22 2 -29 9 -31 31 -3 21 -9 27 -27 27 -18 0 -24 6 -27 28 -2 21 -9 28
-30 30 -22 3 -28 9 -28 28 0 19 -5 24 -25 24 -21 0 -25 5 -25 30 0 27 -3 30
-30 30 -27 0 -30 3 -30 30 0 27 -3 30 -30 30 -25 0 -30 4 -30 25 0 20 -5 25
-25 25 -21 0 -25 5 -25 30 0 27 -3 30 -29 30 -25 0 -30 4 -33 28 -2 19 -9 28
-25 30 -17 3 -23 10 -23 28 0 20 -5 24 -30 24 -27 0 -30 3 -30 30 0 26 -4 30
-28 30 -23 0 -28 4 -28 23 1 17 -5 23 -26 25 -24 3 -28 8 -28 33 0 26 -3 29
-30 29 -26 0 -30 3 -30 29 0 25 -3 28 -25 23 -22 -4 -25 -1 -25 27 0 28 -3 31
-30 31 -27 0 -30 3 -30 30 0 27 -3 30 -30 30 -16 0 -29 3 -29 8 5 29 -3 42
-26 42 -21 0 -25 5 -25 30 0 27 -3 30 -30 30 -27 0 -30 3 -30 30 0 25 -4 30
-25 30 -20 0 -25 5 -25 25 0 21 -5 25 -30 25 -27 0 -30 3 -30 30 0 25 -4 30
-24 30 -21 0 -25 6 -31 50 -4 28 -4 77 0 110 6 55 9 60 31 60 23 0 24 2 24 80
0 77 1 80 24 80 20 0 24 6 30 46 3 26 6 64 6 85 0 35 3 39 25 39 23 0 25 4 25
48 0 26 3 64 6 85 6 31 11 37 30 37 23 0 24 3 25 73 1 39 1 75 0 80 0 4 10 7
23 7 22 0 24 5 28 55 1 30 2 60 0 65 -2 6 -89 10 -225 11 -122 0 -216 3 -209
6 6 2 12 13 12 24 0 19 -19 19 -880 19 -863 0 -880 0 -880 19 0 12 8 21 23 24
12 2 -63 5 -168 6 -104 0 -328 4 -497 8 l-308 6 0 -31 c0 -18 -4 -32 -9 -32
-5 0 -12 -12 -14 -27 l-4 -28 -2 28 c0 15 -6 27 -12 27 -7 0 -9 -10 -7 -25 3
-14 1 -25 -3 -25 -5 0 -9 -13 -9 -30 0 -25 -4 -30 -25 -30 -21 0 -25 -5 -27
-32 0 -18 -2 -37 -3 -43 -2 -5 -3 -16 -4 -22 0 -7 -12 -13 -26 -13 -24 0 -25
-3 -25 -54 0 -52 -1 -55 -27 -58 -23 -2 -29 -8 -31 -35 -3 -27 -8 -33 -27 -33
-22 0 -24 -5 -27 -52 -3 -47 -6 -53 -28 -58 -17 -3 -25 -12 -26 -27 -2 -80 -3
-83 -28 -83 -21 0 -25 -6 -31 -50 -6 -44 -10 -50 -31 -50 -21 0 -24 -5 -24
-35 0 -30 -3 -35 -24 -35 -22 0 -25 -5 -32 -57 l-7 -56 -1181 6 c-649 4 -1198
10 -1218 13 -28 5 -38 12 -38 25 0 18 -36 19 -1240 19 l-1240 0 0 30 c0 27 -3
30 -30 30 -30 0 -30 1 -30 55 0 54 0 55 -30 55 -28 0 -30 3 -30 35 0 30 -3 35
-24 35 -23 0 -25 5 -28 48 -3 43 -5 47 -30 50 -26 3 -28 6 -28 53 0 46 -2 49
-25 49 -21 0 -25 5 -25 30 0 19 -5 30 -15 31 -8 1 -21 2 -27 3 -8 1 -14 21
-16 53 -3 48 -5 52 -30 55 -22 2 -28 9 -30 36 -3 26 -7 32 -28 32 -22 0 -24 4
-24 49 0 47 -2 50 -27 53 -22 2 -29 9 -31 31 -3 21 -9 27 -28 27 -22 0 -24 4
-25 48 -1 26 -1 50 0 55 0 4 -13 7 -29 7 -30 0 -30 1 -30 54 0 52 -1 55 -27
58 -22 2 -29 9 -31 31 -3 21 -9 27 -27 27 -20 0 -23 6 -30 55 -6 50 -9 55 -31
55 -20 0 -24 5 -24 30 0 25 -4 30 -25 30 -20 0 -25 5 -25 24 0 58 -12 86 -36
86 -21 0 -24 5 -24 36 0 19 -4 33 -9 30 -22 -14 -41 8 -47 55 -6 42 -10 49
-29 49 -20 0 -24 7 -30 55 -6 50 -9 55 -31 55 -20 0 -24 5 -24 30 0 25 -4 30
-24 30 -20 0 -24 7 -32 53 -8 46 -12 52 -32 50 -19 -2 -22 2 -22 32 0 30 -3
35 -24 35 -21 0 -25 6 -31 49 -5 41 -11 50 -28 53 -15 2 -23 12 -27 33 -4 21
-12 31 -27 33 -19 3 -24 12 -29 53 -6 42 -10 49 -29 49 -20 0 -24 7 -30 55 -6
50 -9 55 -31 55 -20 0 -24 5 -24 30 0 25 -4 30 -24 30 -22 0 -25 5 -31 55 -7
49 -10 55 -31 55 -20 0 -24 5 -24 30 0 27 -3 30 -30 30 -30 0 -30 1 -30 55 0
52 -1 55 -25 55 -21 0 -25 5 -25 30 0 27 -3 30 -30 30 -25 0 -30 4 -30 25 l0
25 -2070 0 -2070 0 0 -25z m2892 -4019 c7 4 8 2 4 -4 -11 -18 -26 -14 -25 6 0
10 3 12 6 4 2 -6 10 -9 15 -6z m4674 -163 c-11 -3 -25 -11 -33 -18 -10 -11
-10 -14 3 -19 9 -3 219 -6 468 -6 249 0 521 -3 604 -7 145 -6 152 -7 153 -27
1 -19 2 -18 9 4 7 22 8 23 9 4 1 -20 8 -21 138 -27 75 -4 264 -7 420 -7 l283
0 0 -24 c0 -18 -6 -25 -22 -28 -19 -2 -25 -12 -32 -55 -7 -42 -13 -53 -27 -53
-14 0 -19 -7 -19 -30 0 -27 -3 -30 -30 -30 -27 0 -30 -3 -30 -30 0 -25 -4 -30
-24 -30 -22 0 -25 -5 -31 -55 -7 -49 -10 -55 -31 -55 -20 0 -24 -5 -24 -30 0
-25 -4 -30 -25 -30 -14 0 -26 -6 -26 -12 -1 -7 -2 -17 -4 -23 -1 -5 -3 -25 -3
-42 -2 -28 -6 -33 -27 -33 -20 0 -25 -5 -25 -24 0 -19 -6 -25 -27 -28 -26 -3
-28 -7 -31 -55 -3 -48 -5 -52 -30 -55 -21 -2 -28 -9 -30 -30 -3 -22 -9 -28
-28 -28 -20 0 -24 -5 -24 -30 0 -26 -4 -30 -26 -30 -20 0 -24 -4 -19 -19 3
-11 1 -22 -5 -26 -5 -3 -10 -19 -10 -36 0 -24 -4 -29 -24 -29 -19 0 -25 -6
-28 -27 -2 -22 -9 -29 -30 -31 -27 -3 -28 -6 -28 -58 0 -54 -1 -55 -27 -52
-24 3 -28 -1 -31 -24 -3 -22 -9 -28 -27 -28 -20 0 -23 -6 -29 -54 -6 -46 -11
-55 -29 -58 -16 -2 -23 -11 -25 -30 -3 -22 -9 -28 -26 -28 -20 0 -24 -6 -29
-40 -5 -39 -26 -70 -46 -70 -6 0 -11 -13 -11 -30 0 -27 -3 -30 -30 -30 -27 0
-30 -3 -30 -30 0 -25 -4 -30 -25 -30 -24 0 -25 -3 -25 -55 0 -54 0 -55 -30
-55 -27 0 -30 -3 -30 -30 0 -25 -4 -30 -24 -30 -21 0 -25 -6 -31 -49 -6 -47
-8 -49 -43 -55 -66 -11 -72 -9 -72 24 0 25 -4 30 -24 30 -19 0 -25 6 -28 28
-2 21 -9 28 -30 30 -23 3 -28 8 -28 31 0 25 -3 28 -25 23 -22 -4 -25 -1 -25
27 0 23 -5 31 -17 31 -21 0 -43 42 -43 82 0 24 -4 28 -30 28 -27 0 -30 3 -30
30 0 25 -4 30 -24 30 -19 0 -25 6 -28 28 -2 19 -9 28 -25 30 -19 3 -24 12 -29
53 -6 43 -10 49 -30 49 -17 0 -23 6 -26 28 -2 21 -9 28 -30 30 -24 3 -28 8
-28 33 0 26 -3 29 -30 29 -16 0 -29 3 -29 8 6 35 -3 52 -26 52 -21 0 -25 5
-26 33 -2 59 -4 62 -31 65 -24 3 -28 8 -28 33 0 24 -4 29 -24 29 -19 0 -25 6
-28 28 -2 21 -9 28 -30 30 -26 3 -28 6 -28 53 0 48 -19 72 -21 27 -1 -21 -2
-21 -6 -3 -3 11 -11 24 -19 28 -8 4 -14 19 -14 32 0 20 -5 25 -25 25 -21 0
-25 5 -25 30 0 27 -3 30 -30 30 -27 0 -30 3 -30 30 0 25 -4 30 -24 30 -21 0
-25 6 -31 50 -6 44 -10 50 -31 50 -20 0 -24 5 -24 29 0 25 -4 30 -27 33 -22 2
-29 9 -31 31 -3 21 -9 27 -28 27 -20 0 -24 5 -24 30 0 25 -4 30 -24 30 -21 0
-25 6 -31 50 -6 44 -10 50 -31 50 -20 0 -24 5 -24 30 0 27 -3 30 -30 30 -27 0
-30 3 -30 30 0 25 -4 30 -24 30 -19 0 -25 6 -28 28 -2 19 -9 28 -25 30 -13 2
-23 4 -23 5 -1 1 -3 20 -6 42 -8 64 -9 65 -64 65 -47 0 -50 2 -50 25 l0 25
433 -1 c237 -1 423 -4 413 -6z m5314 -968 c0 -17 6 -25 23 -27 16 -2 23 -11
25 -30 3 -22 9 -28 27 -28 21 0 24 -6 30 -54 7 -50 10 -55 34 -58 20 -2 27 -9
29 -30 3 -22 9 -28 28 -28 19 0 24 -5 24 -24 0 -19 6 -25 28 -28 21 -2 28 -9
30 -30 3 -22 9 -28 27 -28 20 0 23 -6 30 -55 6 -50 9 -55 31 -55 20 0 24 -5
24 -30 0 -25 4 -30 24 -30 19 0 25 -6 28 -27 2 -22 9 -29 31 -31 25 -3 27 -6
27 -52 0 -46 2 -49 30 -55 23 -5 30 -12 30 -31 0 -19 5 -24 24 -24 21 0 24 -6
31 -55 6 -50 9 -55 31 -55 20 0 24 -5 24 -30 0 -25 4 -30 24 -30 21 0 24 -6
31 -55 6 -50 9 -55 31 -55 20 0 24 -5 24 -30 0 -27 3 -30 31 -30 16 0 28 -4
25 -9 -3 -5 -3 -30 0 -55 6 -40 10 -46 30 -46 20 0 24 -5 24 -30 0 -25 4 -30
24 -30 22 0 25 -5 31 -55 6 -48 10 -55 30 -55 20 0 24 -7 30 -55 6 -50 9 -55
31 -55 22 0 24 -3 24 -55 0 -54 0 -55 30 -55 30 0 30 -1 30 -55 0 -51 2 -55
24 -55 21 0 24 -6 30 -54 6 -46 11 -55 29 -58 19 -3 22 -10 25 -55 3 -48 5
-53 26 -53 21 0 24 -6 30 -60 6 -55 9 -60 31 -60 24 0 25 -3 25 -60 0 -56 1
-60 24 -60 19 0 24 -6 30 -37 3 -21 6 -57 6 -80 0 -39 2 -43 25 -43 23 0 25
-4 25 -47 0 -64 11 -124 20 -118 5 3 15 2 24 -1 13 -5 16 -22 16 -85 0 -78 0
-79 25 -79 23 0 25 -4 25 -42 0 -65 12 -148 20 -143 4 2 5 -7 2 -20 -3 -18 0
-25 11 -25 9 0 18 10 20 23 2 12 5 -38 6 -110 1 -133 2 -138 37 -134 14 2 24
-120 24 -286 l0 -123 25 0 25 0 0 -355 0 -355 -25 0 -25 0 0 -117 c0 -65 -3
-155 -7 -200 -6 -79 -7 -83 -29 -83 -24 0 -24 -1 -24 -110 l0 -110 -25 0 c-21
0 -25 -5 -27 -32 0 -18 -2 -37 -3 -43 -2 -5 -3 -40 -4 -77 -1 -66 -2 -68 -26
-68 -24 0 -25 -2 -26 -67 -1 -38 -1 -76 0 -85 1 -11 -7 -18 -26 -20 -28 -3
-28 -3 -31 -85 -3 -81 -3 -83 -27 -83 -26 0 -26 0 -30 -90 -1 -21 -5 -24 -28
-22 -27 3 -27 3 -27 -57 0 -57 -1 -61 -24 -61 -19 0 -24 -6 -30 -37 -3 -21 -6
-57 -6 -80 0 -39 -3 -43 -24 -43 -20 0 -24 -6 -30 -42 -4 -24 -8 -49 -8 -56
-1 -7 -11 -11 -22 -10 -17 2 -22 -3 -24 -29 -3 -27 -8 -33 -27 -33 -22 0 -24
-4 -27 -57 -3 -57 -4 -58 -30 -55 -28 3 -28 2 -28 -53 0 -30 -4 -56 -10 -56
-5 -1 -16 -2 -22 -3 -8 0 -17 -25 -22 -58 -8 -51 -12 -58 -32 -58 -19 0 -23
-7 -29 -49 -5 -41 -11 -50 -28 -53 -16 -2 -23 -11 -25 -34 -3 -26 -6 -30 -26
-27 -22 5 -24 1 -30 -50 -6 -47 -11 -56 -32 -61 -19 -5 -24 -13 -24 -36 0 -25
-4 -30 -24 -30 -21 0 -25 -6 -31 -50 -6 -43 -10 -50 -30 -50 -19 0 -23 -7 -29
-50 -6 -48 -26 -71 -26 -30 0 11 -5 20 -11 20 -7 0 -9 -10 -7 -25 3 -14 1 -25
-3 -25 -5 0 -9 -13 -9 -30 0 -25 -4 -30 -25 -30 -21 0 -25 -5 -25 -30 0 -25
-4 -30 -24 -30 -14 0 -28 -5 -32 -12 -4 -7 -3 -8 4 -4 7 4 12 1 12 -6 0 -9 3
-9 10 2 7 11 10 12 10 2 0 -8 -9 -16 -20 -19 -15 -4 -20 -14 -20 -39 0 -31 -3
-34 -30 -34 -29 0 -30 -2 -30 -46 0 -44 -1 -46 -26 -41 -18 3 -24 1 -20 -9 4
-10 -4 -14 -29 -14 -31 0 -35 3 -35 25 0 20 -5 25 -25 25 -21 0 -25 5 -25 30
0 27 -3 30 -30 30 -27 0 -30 3 -30 30 0 25 -4 30 -24 30 -21 0 -25 6 -31 50
-6 44 -10 50 -31 50 -20 0 -24 5 -24 30 0 27 -3 30 -30 30 -27 0 -30 3 -30 30
0 25 -4 30 -24 30 -19 0 -25 6 -28 28 -2 21 -9 28 -30 30 -24 3 -28 8 -28 33
0 24 -4 29 -24 29 -21 0 -25 6 -31 50 -6 44 -10 50 -31 50 -20 0 -24 5 -24 30
0 27 -3 30 -30 30 -27 0 -30 3 -30 30 0 25 -4 30 -25 30 -20 0 -25 5 -25 25 0
21 -5 25 -30 25 -27 0 -30 3 -30 30 0 25 -4 30 -24 30 -22 0 -25 5 -31 55 -7
53 -8 55 -37 55 -27 0 -30 3 -26 24 4 21 1 25 -21 28 -20 2 -27 9 -29 31 -3
21 -9 27 -27 27 -18 0 -24 6 -27 28 -2 21 -9 28 -30 30 -24 3 -28 8 -28 33 0
24 -4 29 -25 29 -20 0 -25 5 -25 25 0 21 -5 25 -29 25 -27 0 -29 3 -36 55 -6
50 -9 55 -31 55 -20 0 -24 5 -24 30 0 25 -4 30 -25 30 -20 0 -25 5 -25 25 0
21 -5 25 -30 25 -27 0 -30 3 -30 30 0 25 -4 30 -24 30 -19 0 -25 6 -28 28 -2
21 -9 28 -29 30 -24 3 -27 9 -33 52 -5 40 -10 49 -29 52 -16 2 -23 11 -25 31
-3 21 -9 27 -28 27 -20 0 -24 5 -24 30 0 27 -3 30 -30 30 -27 0 -30 3 -30 30
0 27 -3 30 -30 30 -16 0 -29 3 -29 8 4 26 -4 41 -23 44 -19 2 -25 12 -32 56
-5 28 -13 52 -17 52 -5 0 -9 -5 -9 -11 0 -6 -7 -4 -15 5 -8 8 -15 26 -15 40 0
21 -5 26 -24 26 -19 0 -25 6 -28 28 -2 21 -9 28 -30 30 -22 3 -28 9 -28 28 0
19 -5 24 -24 24 -19 0 -25 6 -28 28 -2 21 -9 28 -30 30 -22 3 -28 9 -28 27 0
23 -31 51 -43 39 -3 -3 -8 17 -12 45 -6 44 -10 50 -33 53 -22 2 -27 8 -26 31
1 23 -3 27 -27 27 -26 0 -29 4 -29 30 0 27 -3 30 -30 30 -27 0 -30 3 -30 30 0
25 -4 30 -25 30 -20 0 -25 5 -25 25 0 20 -5 25 -24 25 -22 0 -25 5 -31 54 -7
50 -10 55 -34 58 -20 2 -27 9 -29 31 -3 21 -9 27 -28 27 -19 0 -24 5 -24 24 0
19 -6 25 -27 28 -22 2 -29 9 -31 31 -3 21 -9 27 -28 27 -20 0 -24 5 -24 30 0
25 -4 30 -24 30 -21 0 -25 6 -31 49 -6 44 -10 50 -33 53 -21 2 -28 9 -30 31
-3 21 -9 27 -28 27 -20 0 -24 5 -24 30 0 27 -3 30 -30 30 -27 0 -30 3 -30 30
0 25 -4 30 -25 30 -20 0 -25 5 -25 25 0 23 -12 30 -41 27 -4 -1 -9 12 -13 28
-4 23 -11 30 -30 30 -21 0 -24 5 -31 55 -6 50 -9 55 -31 55 -20 0 -24 5 -24
30 0 27 -3 30 -30 30 -25 0 -30 4 -30 25 0 20 -5 25 -25 25 -21 0 -25 5 -25
30 0 27 -3 30 -30 30 -30 0 -30 1 -30 55 0 54 0 55 30 55 29 0 30 2 30 43 0
49 8 63 35 68 13 3 21 14 23 32 3 21 9 27 28 27 19 0 24 5 24 24 0 19 6 25 28
28 23 3 27 7 24 31 -3 24 0 27 28 27 26 0 31 4 30 23 -1 12 -2 37 -1 55 1 29
4 32 31 32 27 0 30 3 30 30 0 25 4 30 24 30 19 0 25 6 28 28 2 21 9 28 31 30
25 3 27 6 27 52 0 46 2 49 28 52 21 2 28 9 30 31 3 21 9 27 28 27 20 0 24 5
24 30 0 25 4 30 24 30 22 0 25 5 31 55 7 49 10 55 30 55 18 0 24 6 27 28 2 21
9 28 31 30 23 3 27 8 27 33 0 24 4 29 24 29 21 0 25 6 31 50 6 44 10 50 31 50
20 0 24 5 24 30 0 27 3 30 30 30 27 0 30 3 30 30 0 25 4 30 24 30 20 0 24 7
32 53 8 46 12 52 32 49 19 -3 22 1 22 27 0 25 4 30 28 33 21 2 28 9 30 31 3
21 9 27 27 27 20 0 23 6 30 55 6 50 9 55 31 55 20 0 24 5 24 30 0 25 4 30 24
30 19 0 25 6 28 28 2 21 9 28 31 30 25 3 27 6 27 53 0 28 3 48 8 46 18 -11 52
13 52 38 0 20 5 25 25 25 21 0 25 5 25 30 0 27 3 30 30 30 27 0 30 3 30 34 0
30 3 33 24 29 22 -5 24 -1 31 46 6 45 10 51 31 51 20 0 24 5 24 30 0 25 4 30
24 30 19 0 25 6 28 27 2 20 10 29 28 33 34 7 36 28 2 24 -27 -4 -27 -4 -2 4
20 6 26 15 28 45 3 34 6 37 33 37 26 0 29 3 29 30 0 25 4 30 24 30 19 0 25 6
28 28 2 21 9 28 31 30 25 3 27 6 27 52 0 46 2 49 28 52 21 2 28 9 30 31 3 21
9 27 28 27 20 0 24 5 24 30 0 25 4 30 24 30 20 0 24 7 32 53 7 43 13 53 32 55
16 3 22 10 22 28 0 20 5 24 30 24 27 0 30 3 30 30 0 25 4 30 24 30 22 0 25 5
31 55 7 49 10 55 31 55 20 0 24 5 24 30 0 27 3 30 30 30 27 0 30 3 30 30 0 25
4 30 24 30 21 0 25 6 31 50 6 44 10 50 31 50 20 0 24 5 24 29 0 25 4 30 28 33
21 2 28 9 30 31 3 21 9 27 27 27 20 0 23 6 30 55 6 49 9 55 30 55 18 0 24 6
27 28 2 19 9 28 26 30 15 2 22 10 22 26 0 31 1 31 64 28 51 -4 56 -6 56 -27z
m-6780 -3344 c0 -6 -4 -13 -10 -16 -5 -3 -10 1 -10 9 0 9 5 16 10 16 6 0 10
-4 10 -9z m10664 -1860 c3 -5 -1 -11 -9 -15 -9 -3 -15 0 -15 9 0 16 16 20 24
6z m-8204 -956 c0 -21 5 -25 30 -25 27 0 30 -3 30 -30 0 -27 3 -30 30 -30 27
0 30 -3 30 -30 0 -25 4 -30 24 -30 19 0 25 -6 28 -27 2 -22 8 -28 28 -28 20 0
26 -6 28 -27 3 -22 9 -28 27 -28 20 0 23 -6 30 -55 6 -50 9 -55 31 -55 19 0
24 -5 24 -24 0 -19 6 -25 28 -28 21 -2 28 -9 30 -30 3 -22 9 -28 28 -28 20 0
24 -5 24 -30 0 -27 3 -30 30 -30 27 0 30 -3 30 -30 0 -25 4 -30 25 -30 20 0
25 -5 25 -25 0 -21 5 -25 30 -25 30 0 30 -1 30 -55 0 -54 0 -55 30 -55 27 0
30 -3 30 -30 0 -25 4 -30 25 -30 20 0 25 -5 25 -24 0 -19 6 -25 28 -28 21 -2
28 -9 30 -30 3 -22 9 -28 28 -28 20 0 24 -5 24 -30 0 -27 3 -30 30 -30 27 0
30 -3 30 -30 0 -25 4 -30 24 -30 21 0 25 -6 31 -50 6 -44 10 -50 31 -50 20 0
24 -5 24 -30 0 -27 3 -30 30 -30 27 0 30 -3 30 -30 0 -25 4 -30 25 -30 20 0
25 -5 25 -25 0 -21 5 -25 30 -25 27 0 30 -3 30 -30 0 -25 4 -30 24 -30 19 0
25 -6 28 -27 2 -19 10 -29 27 -33 26 -6 45 -49 37 -82 -3 -12 4 -18 23 -20 20
-2 27 -9 29 -30 3 -22 9 -28 27 -28 18 0 24 -6 27 -27 2 -22 9 -29 31 -31 22
-3 27 -8 27 -32 0 -26 3 -29 28 -27 24 2 27 -1 24 -25 -3 -25 0 -28 26 -28 31
0 31 1 44 -86 1 -6 9 -9 19 -7 13 4 20 -2 24 -23 11 -49 13 -52 37 -56 17 -2
23 -9 22 -25 0 -19 5 -23 28 -23 24 0 28 -4 28 -30 0 -27 3 -30 30 -30 27 0
30 -3 30 -30 0 -25 4 -30 25 -30 20 0 25 -5 25 -25 0 -18 7 -26 25 -31 15 -4
25 -13 25 -23 0 -10 3 -21 7 -25 4 -4 8 -17 8 -29 0 -14 8 -23 25 -27 18 -4
26 -14 28 -33 3 -21 9 -27 28 -27 20 0 24 -5 24 -30 0 -17 3 -29 8 -29 35 6
52 -3 52 -26 0 -20 5 -25 25 -25 21 0 25 -5 25 -30 0 -27 3 -30 30 -30 27 0
30 -3 30 -30 0 -25 4 -30 23 -30 20 0 25 -7 33 -47 5 -27 15 -49 22 -49 6 -1
17 -2 22 -3 6 0 10 -14 10 -31 0 -27 3 -30 30 -30 27 0 30 -3 30 -30 0 -25 4
-30 25 -30 20 0 25 -5 25 -24 0 -19 6 -25 28 -28 21 -2 28 -9 30 -30 3 -22 9
-28 28 -28 20 0 24 -5 24 -29 0 -17 4 -32 9 -35 5 -3 7 -15 4 -26 -4 -15 0
-20 16 -20 22 0 30 19 9 21 -10 0 -10 2 0 6 6 2 9 10 6 15 -4 7 -2 8 4 4 7 -4
12 -29 12 -57 0 -48 1 -49 30 -49 27 0 30 -3 30 -30 0 -25 4 -30 24 -30 23 0
25 -4 28 -52 3 -49 5 -53 28 -53 23 0 25 -4 28 -57 3 -54 5 -58 27 -58 21 0
24 -6 30 -55 7 -49 10 -55 31 -55 22 0 24 -4 24 -55 0 -51 2 -55 24 -55 20 0
24 -6 30 -46 3 -26 6 -64 6 -85 0 -35 3 -39 25 -39 25 0 25 -1 25 -84 0 -80 1
-85 22 -88 30 -4 35 -32 37 -200 l1 -138 25 0 25 0 0 -275 0 -275 -25 0 -25 0
0 -124 c0 -68 -3 -144 -6 -170 -6 -40 -10 -46 -30 -46 -23 0 -24 -2 -24 -85 0
-84 0 -85 -25 -85 -23 0 -25 -4 -25 -42 0 -24 -3 -60 -6 -80 -6 -32 -11 -38
-30 -38 -23 0 -24 -4 -24 -60 l0 -60 -30 0 c-19 0 -30 -5 -29 -12 1 -7 1 -32
0 -55 -1 -39 -3 -43 -26 -43 -21 0 -25 -5 -25 -30 0 -25 -4 -30 -24 -30 -22 0
-25 -5 -31 -55 -7 -49 -10 -55 -30 -55 -18 0 -24 -6 -27 -27 -2 -24 -7 -28
-30 -26 -25 2 -28 -2 -28 -28 0 -24 -4 -29 -24 -29 -19 0 -25 -6 -28 -27 -2
-22 -9 -29 -30 -31 -21 -3 -27 -9 -30 -30 -2 -19 -9 -27 -23 -27 -12 0 -21 -9
-25 -25 -4 -18 -14 -26 -33 -28 -21 -3 -27 -9 -27 -28 0 -20 -5 -24 -30 -24
-27 0 -30 -3 -30 -30 0 -27 -3 -30 -30 -30 -25 0 -30 -4 -30 -24 0 -22 -5 -25
-55 -31 -48 -6 -55 -10 -55 -30 0 -20 -7 -24 -55 -30 -50 -6 -55 -9 -55 -31 0
-22 -3 -24 -55 -24 -51 0 -55 -2 -55 -24 0 -22 -5 -25 -62 -30 -35 -3 -73 -5
-85 -6 -18 0 -23 -6 -23 -25 0 -25 -1 -25 -84 -25 -80 0 -85 -1 -88 -22 -3
-20 -11 -24 -63 -29 -88 -9 -563 -11 -650 -3 -70 6 -75 8 -75 30 l0 24 -135 0
-135 0 0 24 c0 19 -6 24 -37 30 -21 3 -59 6 -85 6 -27 0 -48 4 -48 9 0 5 11 8
25 5 23 -4 24 -3 13 16 -8 13 -24 20 -43 20 -16 0 -47 3 -67 6 -32 6 -38 11
-38 30 0 20 -5 24 -30 24 -25 0 -30 4 -30 25 0 24 -3 25 -55 25 -54 0 -55 0
-55 30 0 27 -3 30 -30 30 -25 0 -30 4 -30 24 0 21 -6 25 -50 31 -47 6 -55 13
-51 43 1 7 -10 12 -29 12 -27 0 -30 3 -30 30 0 27 -3 30 -30 30 -27 0 -30 3
-30 30 0 19 -5 30 -12 29 -29 -4 -38 2 -38 26 0 21 -5 25 -29 25 -27 0 -29 3
-36 55 -6 50 -9 55 -31 55 -20 0 -24 5 -24 30 0 25 -4 30 -24 30 -22 0 -25 5
-31 55 -7 49 -10 55 -31 55 -20 0 -24 5 -24 30 0 25 -4 30 -24 30 -22 0 -25 5
-31 55 -7 49 -10 55 -31 55 -22 0 -24 4 -24 55 0 54 0 55 -30 55 l-30 0 0 60
c0 57 -1 60 -25 60 -23 0 -25 4 -25 43 0 23 -3 59 -6 80 -6 31 -11 37 -30 37
-23 0 -24 2 -24 85 0 83 -1 85 -24 85 -20 0 -24 6 -30 46 -3 26 -6 75 -6 110
0 61 -1 64 -24 64 -25 0 -25 1 -30 118 -2 64 -5 127 -5 140 -1 24 -15 29 -27
10 -15 -24 -23 29 -23 165 l-1 137 -25 0 -25 0 0 103 c0 57 -3 146 -7 196 -6
90 -7 93 -29 88 l-24 -4 -2 201 c-3 199 -3 201 -24 198 -21 -3 -22 2 -29 108
l-7 110 -135 0 -135 0 4 24 c5 23 3 23 -85 30 -50 3 -141 6 -204 6 l-113 0 0
25 c0 24 -3 25 -55 25 l-55 0 0 54 c0 52 1 55 28 58 25 3 27 7 30 56 3 48 5
52 28 52 20 0 24 5 24 29 0 25 4 30 28 33 25 3 27 7 30 56 3 48 5 52 28 52 20
0 24 5 24 30 0 27 3 30 30 30 30 0 30 1 30 54 0 52 1 55 28 58 21 2 28 9 30
31 2 19 9 27 22 27 31 0 34 20 3 21 l-28 2 28 4 c24 4 27 8 27 44 0 37 2 39
30 39 30 0 30 1 30 55 0 52 1 55 25 55 21 0 25 5 25 30 0 27 3 30 30 30 30 0
30 1 30 55 0 54 0 55 30 55 28 0 30 2 30 41 0 39 2 41 25 37 13 -3 22 -1 19 3
-3 5 -14 9 -25 9 -10 0 -19 5 -19 11 0 7 10 9 24 7 22 -4 25 -1 28 26 2 25 8
32 31 34 26 3 27 6 27 58 0 51 2 54 24 54 19 0 25 6 28 28 2 21 9 28 31 30 26
3 27 6 27 58 0 53 0 54 30 54 17 0 29 3 29 8 -5 31 3 51 24 54 19 3 23 11 27
53 5 46 7 50 33 53 25 3 27 6 27 53 0 45 2 49 24 49 21 0 25 6 28 33 2 27 8
33 31 35 26 3 27 6 27 57 0 52 1 54 28 52 24 -2 27 2 30 31 3 26 8 32 27 32
22 0 24 5 27 52 3 49 5 53 28 53 23 0 25 4 28 53 3 47 5 52 27 52 19 0 24 6
27 33 3 28 6 32 31 29 27 -3 27 -3 27 52 0 52 1 55 28 58 21 2 28 9 30 31 3
21 8 27 28 27 20 0 25 5 24 23 -1 12 -2 37 -1 55 1 29 4 32 31 32 30 0 30 1
30 55 0 52 1 55 25 55 21 0 25 5 25 30 0 27 3 30 30 30 30 0 30 1 30 54 0 52
1 55 28 58 21 2 28 9 30 31 3 21 9 27 28 27 22 0 24 3 24 55 0 54 0 55 30 55
30 0 30 1 30 55 0 52 1 55 25 55 20 0 25 -5 25 -25z m1615 -1835 c3 -5 -1 -10
-9 -10 -9 0 -16 5 -16 10 0 6 4 10 9 10 6 0 13 -4 16 -10z m-5382 -3807 c-7
-2 -19 -2 -25 0 -7 3 -2 5 12 5 14 0 19 -2 13 -5z"/>
<path d="M21208 29483 c6 -2 18 -2 25 0 6 3 1 5 -13 5 -14 0 -19 -2 -12 -5z"/>
<path d="M22450 27915 c0 -8 5 -15 10 -15 6 0 10 7 10 15 0 8 -4 15 -10 15 -5
0 -10 -7 -10 -15z"/>
<path d="M28928 25103 c6 -2 18 -2 25 0 6 3 1 5 -13 5 -14 0 -19 -2 -12 -5z"/>
<path d="M19300 32586 c0 -2 9 -6 20 -9 11 -3 18 -1 14 4 -5 9 -34 13 -34 5z"/>
<path d="M31288 26133 c6 -2 18 -2 25 0 6 3 1 5 -13 5 -14 0 -19 -2 -12 -5z"/>
<path d="M19882 26060 c0 -14 2 -19 5 -12 2 6 2 18 0 25 -3 6 -5 1 -5 -13z"/>
<path d="M15368 19503 c6 -2 18 -2 25 0 6 3 1 5 -13 5 -14 0 -19 -2 -12 -5z"/>
<path d="M14832 14374 c-7 -8 -8 -14 -3 -14 10 0 25 19 20 25 -2 1 -10 -3 -17
-11z"/>
<path d="M23662 13180 c0 -14 2 -19 5 -12 2 6 2 18 0 25 -3 6 -5 1 -5 -13z"/>
<path d="M17100 5510 l0 -2490 30 0 c25 0 30 -4 30 -25 l0 -25 250 0 250 0 0
1814 c0 1507 2 1815 13 1819 19 7 34 -4 38 -28 3 -13 14 -21 32 -23 21 -3 27
-9 27 -26 0 -18 7 -25 30 -29 24 -5 30 -12 30 -32 0 -20 5 -25 24 -25 19 0 25
-6 28 -27 2 -22 9 -29 31 -31 23 -3 27 -8 27 -33 0 -24 4 -29 25 -29 20 0 25
-5 25 -25 0 -21 5 -25 29 -25 27 0 29 -3 36 -55 6 -50 9 -55 31 -55 19 0 24
-5 24 -24 0 -19 6 -25 28 -28 21 -2 28 -9 30 -30 3 -22 9 -28 28 -28 20 0 24
-5 24 -31 0 -27 3 -30 28 -27 23 3 27 -1 30 -24 3 -22 9 -28 28 -28 20 0 24
-5 24 -30 0 -27 3 -30 30 -30 27 0 30 -3 30 -30 0 -25 4 -30 25 -30 20 0 25
-5 25 -25 0 -21 5 -25 30 -25 27 0 30 -3 30 -30 0 -26 3 -30 29 -30 24 0 28
-4 27 -27 -1 -23 4 -29 27 -31 21 -3 27 -9 27 -28 0 -19 5 -24 24 -24 19 0 25
-6 28 -27 2 -22 9 -29 30 -31 23 -3 27 -9 33 -53 7 -50 24 -68 26 -26 1 21 1
21 8 -3 l8 -25 5 25 c3 15 6 3 7 -27 1 -52 2 -53 31 -53 27 0 30 -3 30 -30 0
-25 4 -30 25 -30 20 0 25 -5 25 -24 0 -19 6 -25 28 -28 21 -2 28 -9 30 -30 3
-22 9 -28 27 -28 18 0 24 -6 27 -27 2 -22 9 -29 31 -31 21 -3 27 -9 27 -27 0
-18 6 -24 28 -27 21 -2 28 -9 30 -30 3 -22 9 -28 28 -28 20 0 24 -5 24 -30 0
-27 3 -30 30 -30 25 0 30 -4 30 -25 0 -20 5 -25 25 -25 21 0 25 -5 25 -30 0
-27 3 -30 30 -30 27 0 30 -3 30 -30 0 -25 4 -30 25 -30 20 0 25 -5 25 -25 0
-21 5 -25 30 -25 27 0 30 -3 30 -30 0 -18 6 -33 15 -36 13 -5 13 -9 3 -23 -9
-12 -7 -11 9 2 21 19 22 19 28 -27 6 -39 11 -45 34 -48 20 -2 27 -9 29 -30 3
-22 9 -28 28 -28 20 0 24 -5 24 -30 0 -27 3 -30 30 -30 27 0 30 -3 30 -30 0
-25 4 -30 25 -30 20 0 25 -5 25 -25 0 -21 5 -25 30 -25 27 0 30 -3 30 -30 0
-25 4 -30 25 -30 20 0 25 -5 25 -25 0 -21 5 -25 30 -25 27 0 30 -3 30 -30 0
-27 3 -30 30 -30 27 0 30 -3 30 -30 0 -25 4 -30 24 -30 19 0 25 -6 28 -27 2
-20 9 -28 23 -28 13 0 22 -8 25 -25 4 -18 13 -26 32 -28 21 -3 27 -9 30 -30 2
-21 9 -28 31 -30 25 -3 27 -6 27 -52 0 -46 2 -49 28 -52 21 -2 28 -9 30 -30 3
-21 9 -27 30 -30 21 -2 28 -9 32 -33 3 -16 9 -29 13 -27 24 8 37 0 37 -23 0
-20 5 -25 25 -25 21 0 25 -5 25 -30 0 -27 3 -30 30 -30 27 0 30 -3 30 -30 0
-27 3 -30 30 -30 25 0 30 -4 30 -25 0 -20 5 -25 25 -25 21 0 25 -5 25 -30 0
-27 3 -30 30 -30 27 0 30 -3 30 -30 0 -25 4 -30 25 -30 20 0 25 -5 25 -25 0
-21 5 -25 30 -25 27 0 30 -3 30 -30 0 -25 4 -30 24 -30 19 0 25 -6 28 -27 2
-22 9 -29 31 -31 21 -3 27 -9 27 -28 0 -22 9 -28 37 -25 7 1 14 -21 18 -54 7
-52 9 -55 36 -55 24 0 29 -4 29 -25 0 -20 5 -25 25 -25 21 0 25 -5 25 -30 0
-27 3 -30 30 -30 27 0 30 -3 30 -30 0 -25 4 -30 25 -30 20 0 25 -5 25 -25 0
-21 5 -25 30 -25 l30 0 0 2490 0 2490 -255 0 -255 0 0 -1820 0 -1820 -49 0
c-47 0 -50 2 -53 28 -2 21 -9 28 -30 30 -23 3 -27 9 -33 53 -6 43 -10 49 -31
49 -20 0 -24 5 -24 30 0 27 -3 30 -30 30 -27 0 -30 3 -30 30 0 25 -4 30 -25
30 -20 0 -25 5 -25 25 0 14 -4 26 -10 26 -5 1 -14 3 -20 4 -5 1 -14 3 -20 4
-5 0 -10 12 -10 26 0 20 -5 25 -24 25 -19 0 -25 6 -28 28 -2 21 -9 28 -30 30
-22 3 -28 9 -28 27 0 18 -6 24 -27 27 -22 2 -29 9 -31 31 -3 21 -9 27 -28 27
-20 0 -24 5 -24 30 0 25 -4 30 -25 30 -14 0 -26 6 -26 13 -1 6 -2 19 -3 27 0
8 -13 16 -28 18 -22 3 -28 9 -28 28 0 20 -5 24 -30 24 -30 0 -30 1 -30 55 0
54 0 55 -30 55 -25 0 -30 4 -30 25 0 20 -5 25 -25 25 -25 0 -29 8 -26 43 2 13
-5 17 -28 17 -28 0 -31 3 -31 30 0 25 -4 30 -25 30 -20 0 -25 5 -25 25 0 21
-5 25 -30 25 -27 0 -30 3 -30 30 0 27 -3 30 -30 30 -27 0 -30 3 -30 30 0 25
-4 30 -25 30 -20 0 -25 5 -25 24 0 19 -6 25 -27 28 -22 2 -29 9 -31 31 -3 21
-9 27 -27 27 -18 0 -24 6 -27 28 -2 21 -9 28 -30 30 -26 3 -28 7 -29 50 -1 37
-3 42 -8 22 l-8 -25 -5 25 c-5 23 -5 23 -7 3 0 -13 -6 -23 -12 -23 -7 0 -9 10
-7 25 3 14 1 28 -3 31 -5 3 -9 16 -9 29 0 18 -6 24 -27 27 -20 2 -29 10 -33
28 -3 17 -12 25 -25 25 -14 0 -21 8 -23 28 -3 21 -9 27 -28 27 -20 0 -24 5
-24 30 0 27 -3 30 -30 30 -27 0 -30 3 -30 30 0 27 -3 30 -30 30 -25 0 -30 4
-30 25 0 20 -5 25 -25 25 -21 0 -25 5 -25 30 0 27 -3 30 -30 30 -27 0 -30 3
-30 30 0 25 -4 30 -25 30 -20 0 -25 5 -25 25 0 21 -5 25 -30 25 -27 0 -30 3
-30 30 0 25 -4 30 -24 30 -21 0 -25 6 -31 49 -6 44 -10 50 -33 53 -21 2 -28 9
-30 31 -3 21 -9 27 -28 27 -20 0 -24 5 -24 30 0 27 -3 30 -30 30 -25 0 -30 4
-30 25 0 24 -9 30 -37 26 -8 -1 -13 10 -13 29 0 27 -3 30 -30 30 -27 0 -30 3
-30 30 0 25 -4 30 -25 30 -20 0 -25 5 -25 24 0 19 -6 25 -27 28 -22 2 -29 9
-31 31 -3 21 -9 27 -28 27 -20 0 -24 5 -24 30 0 27 -3 30 -30 30 -25 0 -30 4
-30 24 0 18 -6 26 -22 28 -14 2 -24 12 -28 28 -4 18 -14 26 -32 28 -23 3 -27
8 -33 58 -6 49 -9 54 -31 54 -19 0 -24 5 -24 24 0 19 -6 25 -27 28 -22 2 -29
9 -31 31 -3 21 -9 27 -28 27 -20 0 -24 5 -24 30 0 27 -3 30 -30 30 -25 0 -30
4 -30 25 0 20 -5 25 -25 25 -21 0 -25 5 -25 30 0 27 -3 30 -30 30 -27 0 -30 3
-30 30 0 25 -4 30 -25 30 -20 0 -25 5 -25 25 0 21 -5 25 -30 25 -27 0 -30 3
-30 30 0 25 -4 30 -24 30 -19 0 -25 6 -28 28 -2 21 -9 28 -30 30 -22 3 -28 9
-28 28 0 19 -5 24 -24 24 -22 0 -25 5 -31 54 -7 50 -10 55 -33 58 -18 2 -28
10 -31 23 -4 24 -21 37 -38 30 -9 -3 -13 6 -13 25 0 27 -3 30 -30 30 -27 0
-30 3 -30 30 0 25 -4 30 -24 30 -19 0 -25 6 -28 28 -2 21 -9 28 -30 30 -22 3
-28 9 -28 28 0 20 -5 24 -30 24 -25 0 -30 4 -30 25 0 20 -5 25 -25 25 l-25 0
0 -2490z m3127 -1622 c-3 -7 -5 -2 -5 12 0 14 2 19 5 13 2 -7 2 -19 0 -25z"/>
<path d="M32397 7954 c-4 -4 -7 -31 -7 -61 0 -52 -1 -53 -30 -53 -28 0 -29 -1
-32 -57 -3 -51 -6 -58 -25 -61 -19 -3 -23 -10 -23 -36 0 -18 -3 -54 -6 -80 -6
-40 -10 -46 -30 -46 -22 0 -24 -4 -24 -55 0 -52 -1 -55 -25 -55 -22 0 -25 -5
-31 -60 -6 -54 -9 -60 -30 -60 -21 0 -23 -5 -26 -57 -3 -52 -5 -58 -24 -55
-18 2 -22 -4 -28 -35 -3 -21 -6 -57 -6 -80 0 -39 -2 -43 -24 -43 -22 0 -25 -5
-31 -60 -6 -55 -9 -60 -31 -60 -22 0 -24 -4 -24 -55 0 -51 -2 -55 -24 -55 -19
0 -24 -6 -30 -37 -3 -21 -6 -57 -6 -80 0 -39 -2 -43 -25 -43 -24 0 -25 -3 -25
-60 l0 -60 -30 0 c-30 0 -30 -1 -30 -55 0 -52 -1 -55 -25 -55 -22 0 -24 -4
-27 -57 -3 -55 -4 -58 -30 -61 -28 -3 -28 -4 -28 -83 l0 -79 -30 0 c-30 0 -30
-1 -30 -55 0 -52 -1 -55 -25 -55 -22 0 -24 -4 -27 -57 -3 -50 -6 -58 -24 -61
-23 -3 -34 -40 -34 -119 0 -39 -2 -43 -24 -43 -21 0 -24 -6 -31 -55 -6 -50 -9
-55 -31 -55 -23 0 -24 -3 -24 -60 0 -56 -1 -60 -24 -60 -19 0 -24 -6 -30 -37
-3 -21 -6 -58 -6 -82 0 -41 -1 -43 -25 -39 -26 5 -26 5 -29 -84 -1 -16 -9 -25
-26 -28 -23 -5 -25 -10 -28 -63 -3 -53 -5 -57 -27 -57 -24 0 -25 -3 -25 -55 0
-54 0 -55 -30 -55 l-30 0 0 -79 c0 -79 0 -80 -27 -83 -27 -3 -28 -6 -31 -60
-3 -54 -5 -58 -27 -58 -22 0 -24 -4 -27 -57 -3 -50 -6 -58 -24 -61 -25 -4 -34
-35 -34 -113 0 -45 -2 -49 -24 -49 -21 0 -24 -6 -31 -55 -6 -50 -9 -55 -31
-55 -23 0 -24 -3 -24 -60 0 -57 -1 -60 -24 -60 -22 0 -25 -5 -31 -54 -6 -46
-11 -55 -29 -58 -12 -2 -22 -11 -23 -23 -13 -133 -13 -135 -39 -135 -23 0 -24
-3 -24 -60 0 -57 -1 -60 -24 -60 -23 0 -25 -4 -28 -52 -3 -49 -5 -53 -30 -56
-28 -3 -28 -4 -28 -82 0 -78 0 -79 -27 -82 -30 -3 -30 -3 -32 -73 -1 -41 -3
-45 -26 -45 -24 0 -25 -3 -25 -55 0 -51 -2 -55 -24 -55 -19 0 -24 -6 -30 -38
-3 -20 -6 -56 -6 -78 0 -40 -1 -42 -37 -48 -65 -10 -73 -8 -73 19 0 24 -4 27
-40 29 -9 1 -16 13 -18 29 -3 21 -9 27 -28 27 -20 0 -24 5 -24 30 0 27 -3 30
-31 30 -26 0 -30 3 -28 23 4 29 -8 47 -30 47 -13 0 -20 12 -27 48 -7 37 -13
47 -29 47 -14 0 -21 8 -23 27 -3 21 -9 27 -30 30 -21 2 -28 9 -30 31 -3 21 -9
27 -28 27 -20 0 -24 5 -24 30 0 17 -5 30 -11 30 -6 0 -9 9 -6 20 3 11 1 18 -4
14 -5 -3 -9 0 -9 5 0 6 -6 10 -12 8 -8 -1 -14 11 -16 31 -3 26 -7 32 -28 32
-19 0 -24 5 -24 25 0 21 -5 25 -30 25 -27 0 -30 3 -30 30 0 25 -4 30 -24 30
-19 0 -25 6 -28 28 -2 21 -9 28 -29 30 -24 3 -27 8 -34 57 -3 30 -9 54 -13 54
-30 -5 -42 3 -42 26 0 20 -5 25 -25 25 -21 0 -25 5 -25 30 0 27 -3 30 -30 30
-27 0 -30 3 -30 30 0 28 -8 34 -37 31 -6 -1 -14 20 -18 49 -6 44 -10 50 -31
50 -20 0 -24 5 -24 29 0 25 -4 30 -27 33 -22 2 -29 9 -31 31 -3 21 -9 27 -28
27 -20 0 -24 5 -24 30 0 27 -3 30 -30 30 -29 0 -30 1 -30 49 0 47 -2 50 -27
53 -22 2 -29 9 -31 31 -3 21 -9 27 -28 27 -20 0 -24 5 -24 30 0 27 -3 30 -30
30 -27 0 -30 3 -30 30 0 25 -4 30 -24 30 -21 0 -25 6 -31 50 -6 47 -13 55 -42
51 -8 -1 -13 10 -13 28 0 25 -4 30 -27 33 -22 2 -29 9 -31 31 -3 21 -9 27 -28
27 -20 0 -24 5 -24 30 0 25 -4 30 -24 30 -21 0 -25 6 -31 50 -6 44 -10 50 -31
50 -17 0 -24 6 -25 20 -1 11 -3 25 -4 30 -1 6 -3 14 -4 20 0 5 -7 7 -15 4 -10
-4 -12 2 -9 20 l5 26 264 0 264 0 0 24 c0 20 6 24 46 30 26 3 64 6 85 6 35 0
39 3 39 25 0 24 3 25 55 25 51 0 55 2 55 24 0 21 6 24 55 31 50 6 55 9 55 31
0 20 5 24 30 24 27 0 30 3 30 30 0 30 1 30 55 30 l55 0 0 37 c0 20 3 34 6 30
8 -7 34 17 34 32 0 6 5 11 10 11 6 0 10 14 10 30 0 25 4 30 25 30 21 0 25 5
25 30 0 25 4 30 24 30 19 0 24 6 30 38 3 20 6 56 6 80 0 38 2 42 25 42 22 0
25 4 25 39 0 21 3 59 6 85 6 40 10 46 30 46 l24 0 0 360 0 360 -24 0 c-20 0
-24 6 -30 46 -3 26 -6 66 -6 90 0 40 -2 44 -25 44 -24 0 -25 3 -25 55 0 52 -2
55 -24 55 -22 0 -25 5 -31 55 -7 49 -10 55 -31 55 -22 0 -24 4 -25 48 -1 26
-1 50 0 55 0 4 -12 7 -29 7 -27 0 -30 3 -30 30 0 27 -3 30 -31 30 -23 0 -30 4
-28 18 3 34 -1 42 -26 42 -20 0 -25 5 -25 25 0 21 -5 25 -29 25 -25 0 -30 4
-33 28 -2 21 -9 28 -30 30 -22 3 -28 9 -28 28 0 22 -3 24 -55 24 -54 0 -55 0
-55 30 l0 30 -80 0 c-78 0 -80 1 -80 24 0 23 -2 24 -118 31 -118 7 -119 7
-114 31 l4 24 -841 0 -841 0 2 -2432 3 -2433 277 -3 278 -2 0 1136 c0 625 3
1154 6 1175 6 33 10 39 30 39 19 0 24 -5 24 -25 0 -20 5 -25 25 -25 23 0 32
-17 26 -52 0 -5 13 -8 29 -8 27 0 30 -3 30 -30 0 -25 4 -30 24 -30 22 0 25 -5
31 -55 7 -49 10 -55 30 -55 18 0 24 -6 27 -27 2 -22 9 -29 31 -31 21 -3 27 -9
27 -28 0 -19 5 -24 25 -24 21 0 25 -5 25 -30 0 -27 3 -30 30 -30 30 0 30 -1
30 -55 0 -54 0 -55 30 -55 27 0 30 -3 30 -30 0 -25 4 -30 25 -30 20 0 25 -5
25 -25 0 -18 7 -26 25 -31 21 -5 26 -14 31 -55 6 -43 9 -49 30 -49 20 0 24 -5
24 -30 0 -27 3 -30 30 -30 27 0 30 -3 30 -30 0 -25 4 -30 24 -30 21 0 25 -6
31 -50 6 -44 10 -50 31 -50 20 0 24 -5 24 -29 0 -25 4 -30 28 -33 21 -2 28 -9
30 -30 3 -22 9 -28 27 -28 19 0 24 -6 27 -32 2 -28 7 -33 28 -33 23 0 25 -4
28 -52 3 -51 4 -53 33 -53 24 0 29 -4 29 -25 0 -20 5 -25 25 -25 21 0 25 -5
25 -30 0 -25 4 -30 24 -30 22 0 25 -5 31 -55 7 -49 10 -55 30 -55 18 0 24 -6
27 -27 2 -22 9 -29 31 -31 23 -3 27 -8 27 -33 0 -24 4 -29 24 -29 21 0 25 -6
31 -50 6 -44 10 -50 31 -50 20 0 24 -5 24 -30 0 -27 3 -30 30 -30 27 0 30 -3
30 -30 0 -25 4 -30 24 -30 22 0 25 -5 31 -55 7 -49 10 -55 31 -55 20 0 24 -5
24 -29 0 -17 5 -29 13 -28 38 1 47 -4 47 -28 0 -20 5 -25 25 -25 21 0 25 -5
25 -30 0 -25 4 -30 24 -30 17 0 25 -6 25 -17 1 -10 4 -35 7 -55 5 -31 10 -38
29 -38 18 0 24 -6 27 -27 2 -22 9 -29 31 -31 21 -3 27 -9 27 -28 l0 -24 270 0
c209 0 270 3 270 13 0 8 4 7 10 -3 8 -13 10 -12 10 3 0 9 -4 17 -10 17 -5 0
-10 5 -10 11 0 5 5 7 10 4 6 -4 10 8 10 29 l0 36 54 0 c52 0 55 -1 58 -27 2
-22 9 -29 31 -31 21 -3 27 -9 27 -28 l0 -24 219 0 220 0 6 55 c7 49 10 55 31
55 22 0 24 4 24 55 0 51 2 55 24 55 19 0 24 6 30 38 3 20 6 58 6 85 0 43 2 47
24 47 21 0 24 6 31 55 6 50 9 55 31 55 23 0 24 3 24 60 0 56 1 60 24 60 19 0
24 6 30 37 3 21 6 57 6 81 0 38 2 42 25 42 22 0 25 5 25 33 0 52 10 76 34 79
18 3 21 10 24 61 3 53 5 57 27 57 23 0 25 4 25 43 0 23 3 59 6 80 6 31 11 37
30 37 23 0 24 4 24 60 0 57 1 60 24 60 22 0 25 5 31 55 7 49 10 55 31 55 22 0
24 4 24 55 l0 55 955 0 955 0 0 -45 c0 -40 3 -45 23 -46 21 -1 21 -1 -3 -9
l-25 -8 28 -1 c25 -1 27 -4 27 -43 0 -50 8 -64 35 -69 17 -4 20 -13 23 -62 3
-53 5 -57 27 -57 23 0 25 -4 25 -44 0 -24 3 -57 6 -74 7 -33 33 -50 46 -30 4
7 8 -18 8 -59 0 -71 1 -73 24 -73 22 0 25 -5 31 -55 7 -49 10 -55 31 -55 22 0
24 -4 24 -42 0 -80 11 -117 34 -120 18 -3 21 -11 24 -60 3 -54 5 -58 27 -58
24 0 25 -3 25 -55 0 -54 0 -55 30 -55 l30 0 0 -79 c0 -79 0 -80 28 -83 26 -3
27 -6 30 -60 3 -53 5 -58 26 -58 21 0 24 -6 31 -55 l6 -55 298 0 298 0 7 38
c10 63 8 72 -18 72 -19 0 -24 6 -30 38 -3 20 -6 56 -6 80 0 38 -3 42 -24 42
-21 0 -24 5 -30 60 -6 55 -9 60 -31 60 -24 0 -25 3 -25 55 0 30 -4 56 -10 56
-5 1 -16 2 -22 3 -8 0 -17 25 -22 59 -8 51 -12 57 -33 57 -20 0 -23 5 -23 43
0 23 -3 59 -6 80 -6 31 -11 37 -30 37 -22 0 -24 4 -24 55 0 52 -1 55 -25 55
-22 0 -24 4 -27 58 -3 54 -5 57 -30 60 -27 3 -27 5 -30 80 -3 72 -4 76 -28 82
-22 5 -25 12 -28 58 -3 48 -5 52 -28 52 -23 0 -24 3 -24 59 0 58 -1 60 -27 63
-20 2 -28 9 -29 23 -4 87 -3 85 -29 85 -23 0 -25 4 -25 43 0 79 -11 116 -34
119 -18 3 -21 11 -24 61 -3 53 -5 57 -27 57 -22 0 -25 5 -31 60 -6 55 -9 60
-30 60 -22 0 -24 4 -24 49 0 28 -4 52 -9 55 -4 3 -6 17 -3 31 4 22 1 25 -22
25 -25 0 -26 2 -26 55 0 52 -1 55 -25 55 -26 0 -31 18 -27 88 0 12 -5 23 -14
23 -8 1 -20 2 -26 3 -9 1 -14 22 -16 59 -3 52 -5 57 -26 57 -19 0 -24 7 -30
38 -3 20 -6 56 -6 80 0 38 -2 42 -25 42 -23 0 -25 4 -25 44 0 60 -8 76 -36 76
-22 0 -24 4 -24 55 0 52 -1 55 -25 55 -23 0 -25 4 -25 44 0 56 -10 106 -21
106 -5 0 -9 -10 -10 -22 -1 -22 -1 -22 -8 2 l-8 25 -5 -25 c-3 -14 -6 15 -7
63 l-1 88 -27 -3 c-29 -3 -29 -4 -31 70 -2 38 -5 42 -27 42 -22 0 -24 4 -27
58 -3 49 -6 57 -24 60 -25 4 -34 35 -34 113 0 45 -2 49 -24 49 -20 0 -24 6
-30 46 -3 25 -3 50 0 55 3 5 -9 9 -25 9 l-31 0 0 60 c0 57 -1 60 -24 60 -22 0
-25 5 -31 55 -6 44 -11 55 -26 55 -30 0 -32 20 -2 21 21 1 23 3 8 6 -30 7 -35
15 -36 65 -3 55 -7 64 -34 69 -17 4 -20 13 -23 62 -3 53 -5 57 -27 57 -24 0
-25 3 -25 55 0 54 0 55 -30 55 l-30 0 0 79 c0 79 0 80 -27 83 -27 3 -28 6 -31
61 -3 53 -5 57 -27 57 -24 0 -25 3 -25 55 0 52 -1 55 -25 55 -22 0 -25 5 -31
60 -6 55 -9 60 -30 60 -21 0 -24 5 -24 34 0 18 -3 54 -6 80 -6 40 -10 46 -30
46 -22 0 -24 4 -24 55 l0 55 -34 0 c-19 0 -41 2 -48 5 -8 3 -17 2 -21 -1z
m-3672 -623 c63 -5 70 -8 73 -28 3 -22 7 -23 112 -23 l109 0 3 -27 c3 -27 6
-28 61 -31 53 -3 57 -5 57 -27 0 -21 5 -25 30 -25 27 0 30 -3 30 -30 0 -25 4
-30 25 -30 20 0 25 -5 25 -24 0 -19 6 -25 28 -28 25 -3 27 -7 30 -55 3 -49 5
-53 28 -53 22 0 24 -4 24 -47 0 -27 3 -65 6 -85 6 -32 11 -38 30 -38 l24 0 0
-280 c0 -242 -2 -280 -15 -280 -8 0 -15 5 -15 10 0 6 -4 10 -9 10 -4 0 -12
-31 -15 -70 -7 -66 -9 -70 -32 -70 -23 0 -24 -3 -24 -55 0 -54 0 -55 -30 -55
-25 0 -30 -4 -30 -25 0 -20 -5 -25 -25 -25 -21 0 -25 -5 -25 -30 0 -30 -1 -30
-54 -30 -52 0 -55 -1 -58 -27 -3 -27 -6 -28 -60 -31 -54 -3 -58 -5 -58 -27 0
-25 -1 -25 -88 -25 -49 0 -123 -3 -165 -6 -64 -6 -77 -10 -77 -25 0 -15 -14
-18 -102 -24 -57 -3 -233 -5 -393 -3 l-290 3 -3 813 -2 812 402 -1 c222 -1
435 -4 473 -8z m3715 -636 c0 -21 5 -25 30 -25 l30 0 0 -60 0 -60 31 0 c16 0
28 -4 25 -9 -3 -5 -3 -30 0 -55 6 -40 10 -46 30 -46 21 0 24 -5 24 -42 0 -80
11 -117 34 -120 18 -3 21 -11 24 -60 3 -54 5 -58 27 -58 22 0 24 -4 27 -57 3
-57 4 -58 31 -55 l27 3 0 -86 0 -85 30 0 c30 0 30 -1 30 -55 0 -52 1 -55 25
-55 22 0 24 -4 27 -57 3 -51 6 -58 25 -61 18 -3 23 -12 29 -58 6 -48 9 -54 30
-54 15 0 24 -6 24 -15 0 -9 -9 -15 -25 -15 -14 0 -25 -4 -25 -9 0 -4 11 -6 24
-4 22 5 24 1 30 -56 6 -56 9 -61 31 -61 24 0 25 -3 25 -60 0 -57 1 -60 24 -60
22 0 25 -5 31 -55 6 -48 10 -55 30 -55 20 0 23 -6 28 -77 3 -42 4 -81 1 -85
-8 -12 -1462 -10 -1469 2 -4 6 -14 9 -23 8 -11 -2 -18 5 -20 20 -3 19 1 22 27
22 31 0 31 0 31 55 0 52 1 55 25 55 22 0 24 4 27 58 2 42 7 57 18 58 8 1 20 2
25 3 6 1 11 22 12 49 3 73 11 92 36 93 21 1 21 1 -3 9 -23 7 -23 8 -4 9 19 1
23 9 29 56 6 50 9 55 31 55 23 0 24 3 24 60 0 57 1 60 24 60 22 0 25 5 31 54
6 46 11 55 29 58 12 2 22 11 23 23 12 128 14 134 36 137 19 3 22 10 25 61 3
53 5 57 27 57 24 0 25 3 25 55 0 54 0 55 30 55 l30 0 0 79 c0 79 0 80 28 83
26 3 27 6 30 61 3 53 5 57 27 57 24 0 25 3 25 55 0 49 2 55 24 61 27 6 36 36
36 115 0 46 2 49 25 49 20 0 25 -5 25 -25z m-2600 -2980 c0 -8 -2 -15 -4 -15
-2 0 -6 7 -10 15 -3 8 -1 15 4 15 6 0 10 -7 10 -15z"/>
<path d="M14360 7926 c0 -58 -12 -86 -36 -86 -23 0 -24 -4 -24 -60 0 -56 -1
-60 -24 -60 -19 0 -24 -6 -30 -37 -3 -21 -6 -57 -6 -80 0 -39 -2 -43 -25 -43
-24 0 -25 -3 -25 -54 0 -52 -1 -55 -27 -58 -27 -3 -28 -6 -31 -60 -3 -54 -5
-58 -27 -58 -22 0 -25 -5 -25 -34 0 -18 -3 -54 -6 -80 -6 -40 -10 -46 -30 -46
-22 0 -24 -4 -24 -55 0 -51 -2 -55 -24 -55 -22 0 -25 -5 -31 -60 -6 -55 -9
-60 -31 -60 -22 0 -24 -4 -24 -47 0 -64 -9 -93 -25 -87 -20 8 -35 -29 -35 -85
0 -47 -2 -51 -24 -51 -22 0 -25 -5 -31 -60 -6 -55 -9 -60 -31 -60 -22 0 -24
-4 -24 -55 0 -51 -2 -55 -24 -55 -20 0 -24 -6 -30 -46 -3 -26 -6 -62 -6 -80 0
-30 -3 -34 -25 -34 -24 0 -25 -3 -25 -60 l0 -60 -30 0 c-30 0 -30 -1 -30 -55
0 -52 -1 -55 -25 -55 -23 0 -25 -4 -25 -45 0 -64 -21 -125 -42 -125 -15 0 -18
-9 -18 -55 0 -52 -1 -55 -25 -55 -22 0 -25 -5 -31 -60 -6 -55 -9 -60 -30 -60
-22 0 -24 -4 -24 -55 0 -51 -2 -55 -24 -55 -19 0 -24 -6 -30 -37 -3 -21 -6
-57 -6 -80 0 -39 -2 -43 -24 -43 -22 0 -25 -5 -31 -60 -6 -55 -9 -60 -31 -60
-22 0 -24 -4 -24 -55 0 -51 -2 -55 -24 -55 -19 0 -24 -6 -30 -38 -3 -20 -6
-56 -6 -79 0 -39 -2 -43 -25 -43 -22 0 -24 -4 -27 -57 -3 -52 -5 -58 -28 -63
-22 -5 -25 -12 -28 -58 -3 -48 -5 -52 -28 -52 -22 0 -24 -3 -24 -55 0 -35 -5
-57 -14 -62 -8 -4 -16 -17 -19 -28 -4 -18 -5 -18 -6 3 0 12 -5 22 -11 22 -6 0
-10 -33 -10 -80 l0 -80 -30 0 c-30 0 -30 -1 -30 -55 0 -52 -1 -55 -25 -55 -22
0 -24 -4 -27 -57 -3 -50 -6 -58 -24 -61 -23 -3 -34 -40 -34 -119 0 -39 -2 -43
-24 -43 -21 0 -24 -6 -31 -55 -6 -50 -9 -55 -31 -55 -23 0 -24 -3 -24 -60 0
-57 -1 -60 -24 -60 -22 0 -25 -5 -31 -55 -7 -51 -9 -55 -34 -56 -26 -1 -25 -2
4 -9 l30 -8 -27 -1 c-25 -1 -28 -5 -28 -33 0 -70 -11 -107 -34 -110 -18 -3
-21 -11 -24 -60 -3 -54 -5 -58 -27 -58 -24 0 -25 -3 -25 -55 0 -54 0 -55 -30
-55 l-30 0 0 -79 c0 -79 0 -80 -27 -83 -23 -2 -29 -8 -31 -35 -3 -27 -8 -33
-27 -33 -19 0 -24 6 -27 33 -2 24 -8 33 -25 35 -19 3 -24 12 -29 53 -6 42 -10
49 -29 49 -20 0 -24 7 -30 55 -6 50 -9 55 -31 55 -21 0 -24 5 -24 36 0 31 -3
35 -22 32 -20 -3 -24 3 -32 50 -8 45 -12 52 -31 52 -20 0 -24 7 -30 55 -6 50
-9 55 -31 55 -20 0 -24 5 -24 30 0 25 -4 30 -24 30 -21 0 -24 6 -31 55 -6 50
-9 55 -31 55 -20 0 -24 5 -24 30 0 25 -4 30 -24 30 -21 0 -24 6 -31 55 -6 50
-9 55 -31 55 -25 0 -24 -1 -28 85 -1 14 -9 21 -29 23 -23 3 -27 8 -27 33 0 24
-4 29 -25 29 -26 0 -26 1 -28 88 -1 17 -7 22 -29 22 -27 0 -28 1 -28 55 0 54
0 55 -30 55 -27 0 -30 3 -30 30 0 25 -4 30 -25 30 -24 0 -25 3 -25 54 0 52 -1
55 -27 58 -22 2 -29 9 -31 31 -3 21 -9 27 -28 27 -34 0 -31 28 4 33 l27 4 -27
2 c-25 1 -28 5 -28 36 0 32 -2 35 -30 35 -30 0 -30 1 -30 55 0 54 0 55 -30 55
-27 0 -30 3 -30 30 0 25 -4 30 -25 30 -24 0 -25 3 -25 55 0 54 0 55 -30 55
-30 0 -30 1 -30 55 0 52 -1 55 -25 55 -21 0 -25 5 -25 30 0 27 -3 30 -30 30
-30 0 -30 1 -30 55 0 54 0 55 -30 55 -28 0 -30 3 -30 35 0 31 -3 35 -26 35
-14 0 -23 4 -19 10 3 6 15 10 26 10 10 0 19 5 19 11 0 7 -10 9 -25 7 -23 -5
-25 -2 -25 28 0 30 -3 34 -25 34 -19 0 -25 5 -25 21 0 11 4 17 10 14 18 -11
40 15 40 46 0 24 4 29 25 29 24 0 25 3 25 55 0 54 0 55 30 55 30 0 30 1 30 54
0 52 1 55 28 58 21 2 28 9 30 31 3 21 9 27 28 27 22 0 24 3 24 54 0 52 1 55
28 58 25 3 27 7 30 56 3 47 5 52 26 52 21 0 24 6 31 55 6 50 9 55 31 55 21 0
24 5 24 35 0 30 3 34 22 32 20 -2 24 4 32 51 8 45 12 52 31 52 20 0 24 7 30
55 6 50 9 55 31 55 21 0 24 5 24 35 0 30 3 35 24 35 20 0 24 6 30 41 4 22 4
44 1 50 -4 5 8 9 24 9 31 0 31 0 31 54 0 52 1 55 28 58 22 2 28 8 30 36 3 26
7 32 28 32 22 0 24 4 24 49 0 47 2 50 28 53 25 3 27 7 30 56 3 47 5 52 26 52
21 0 24 6 31 55 7 57 30 77 38 33 2 -14 7 -3 12 30 7 49 13 56 41 53 7 -1 15
22 19 54 6 49 9 55 30 55 20 0 23 6 29 54 6 46 11 55 29 58 17 2 23 11 25 36
3 26 8 32 27 32 21 0 24 6 30 55 7 49 10 55 31 55 22 0 24 4 24 49 0 47 2 50
28 53 22 2 28 8 30 36 3 26 8 32 26 32 19 0 22 4 18 25 l-4 25 -329 0 -329 0
0 -30 c0 -25 -4 -30 -24 -30 -22 0 -25 -5 -31 -55 -7 -49 -10 -55 -31 -55 -22
0 -24 -4 -24 -55 0 -54 0 -55 -30 -55 -30 0 -30 -1 -30 -55 0 -51 -2 -55 -24
-55 -21 0 -24 -6 -31 -55 -6 -49 -9 -55 -30 -55 -22 0 -24 -5 -27 -52 -3 -46
-6 -53 -28 -58 -19 -4 -26 -13 -28 -38 -3 -26 -8 -32 -27 -32 -22 0 -24 -5
-27 -52 -3 -49 -5 -53 -30 -56 -27 -3 -28 -6 -28 -58 0 -51 -2 -54 -24 -54
-22 0 -25 -5 -31 -55 -7 -49 -10 -55 -31 -55 -22 0 -24 -4 -24 -55 0 -54 0
-55 -30 -55 -30 0 -30 -1 -30 -55 0 -52 -1 -55 -25 -55 -21 0 -25 -5 -25 -30
0 -26 -4 -30 -26 -30 -21 0 -25 -4 -21 -20 3 -11 1 -23 -4 -26 -5 -3 -9 -18
-9 -35 0 -24 -4 -29 -25 -29 -23 0 -25 -4 -26 -42 -1 -24 -1 -49 0 -55 1 -8
-10 -13 -29 -13 -30 0 -30 0 -30 -55 0 -51 -2 -55 -24 -55 -28 0 -36 -16 -36
-71 0 -34 -3 -39 -24 -39 -21 0 -25 -6 -32 -57 -4 -32 -9 -48 -12 -36 -2 17
-12 23 -48 29 l-44 6 0 54 c0 53 0 54 -30 54 -30 0 -30 1 -30 54 0 52 -1 55
-27 58 -26 3 -28 6 -31 57 -3 50 -4 53 -28 48 -22 -4 -24 -1 -24 29 0 29 -3
34 -24 34 -22 0 -25 5 -31 55 -6 48 -10 55 -30 55 -19 0 -23 7 -29 46 -3 25
-3 50 0 55 3 5 -9 9 -25 9 -31 0 -31 0 -31 54 0 52 -1 55 -27 58 -23 2 -29 8
-31 36 -3 26 -8 32 -27 32 -22 0 -24 5 -27 52 -3 46 -6 53 -28 58 -22 5 -25
12 -28 58 -3 47 -5 52 -26 52 -20 0 -24 7 -32 53 -7 43 -13 53 -31 55 -21 3
-23 9 -23 58 0 53 0 54 -30 54 -27 0 -30 3 -30 30 0 25 -4 30 -25 30 -24 0
-25 3 -25 55 0 54 0 55 -30 55 -30 0 -30 1 -30 55 0 51 -2 55 -24 55 -21 0
-24 6 -31 55 -6 50 -9 55 -31 55 -20 0 -24 5 -24 28 0 29 -19 71 -20 42 0 -8
-9 -2 -20 15 -11 17 -20 42 -20 58 l0 27 -335 0 -335 0 0 -54 c0 -52 1 -55 28
-58 25 -3 27 -7 30 -55 3 -49 5 -53 28 -53 20 0 24 -5 24 -30 0 -27 3 -30 30
-30 30 0 30 -1 30 -54 0 -52 1 -55 28 -58 25 -3 27 -7 30 -55 3 -49 5 -53 28
-53 20 0 24 -5 24 -30 0 -27 3 -30 30 -30 30 0 30 -1 30 -55 0 -52 1 -55 25
-55 21 0 25 -5 25 -30 0 -27 3 -30 30 -30 30 0 30 -1 30 -55 0 -52 2 -55 24
-55 22 0 25 -5 31 -55 7 -49 10 -55 31 -55 20 0 24 -5 24 -30 0 -25 4 -30 24
-30 22 0 25 -5 31 -55 6 -48 10 -55 30 -55 20 0 24 -7 30 -55 6 -50 9 -55 31
-55 20 0 24 -5 24 -30 0 -25 4 -30 24 -30 22 0 25 -5 31 -55 7 -49 10 -55 31
-55 20 0 24 -5 24 -30 0 -25 4 -30 24 -30 22 0 25 -5 31 -55 6 -48 10 -55 30
-55 20 0 24 -7 30 -55 6 -50 9 -55 31 -55 20 0 24 -5 24 -30 0 -25 4 -30 24
-30 22 0 25 -5 31 -55 6 -48 10 -55 30 -55 20 0 24 -7 30 -55 6 -50 9 -55 31
-55 20 0 24 -5 24 -30 0 -25 4 -30 24 -30 21 0 24 -6 31 -55 6 -50 9 -55 31
-55 20 0 24 -5 24 -30 0 -16 5 -30 10 -30 6 0 11 -12 11 -27 l1 -28 7 30 c12
57 35 -25 25 -91 -5 -38 -10 -44 -30 -44 -21 0 -24 -5 -24 -40 0 -22 -4 -40
-10 -40 -5 0 -10 -5 -10 -11 0 -5 5 -7 10 -4 6 3 10 1 10 -4 0 -6 -7 -11 -15
-11 -8 0 -15 7 -15 15 0 8 -4 15 -9 15 -10 0 -21 -34 -21 -67 0 -18 -6 -23
-25 -23 -24 0 -25 -3 -25 -54 0 -52 -1 -55 -27 -58 -26 -3 -28 -7 -31 -55 -3
-49 -5 -53 -28 -53 -20 0 -24 -5 -24 -30 0 -27 -3 -30 -30 -30 -30 0 -30 -1
-30 -55 0 -51 -2 -55 -24 -55 -21 0 -24 -6 -31 -55 -6 -49 -9 -55 -30 -55 -20
0 -23 -6 -29 -54 -6 -46 -11 -55 -29 -58 -17 -2 -23 -11 -25 -35 -3 -27 -7
-33 -28 -33 -22 0 -24 -4 -24 -50 0 -49 -1 -50 -30 -50 -30 0 -30 -1 -30 -54
0 -52 -1 -55 -27 -58 -26 -3 -28 -7 -31 -55 -3 -48 -5 -53 -27 -53 -19 0 -24
-6 -27 -32 -2 -25 -8 -34 -25 -36 -18 -3 -23 -12 -29 -58 -6 -48 -9 -54 -29
-54 -21 0 -24 -6 -31 -56 -6 -52 -8 -55 -30 -50 -22 6 -24 3 -24 -29 0 -30 -3
-35 -24 -35 -22 0 -25 -5 -31 -55 -7 -49 -10 -55 -31 -55 -22 0 -24 -4 -24
-55 0 -54 0 -55 -30 -55 -30 0 -30 -1 -30 -55 0 -52 -2 -55 -24 -55 -19 0 -25
-6 -28 -27 -2 -22 -9 -29 -31 -31 -15 -2 -27 -9 -26 -15 1 -7 1 -31 0 -54 -1
-39 -4 -43 -25 -43 -22 0 -25 -5 -31 -55 -6 -48 -10 -55 -30 -55 -20 0 -24 -7
-30 -55 -6 -50 -9 -55 -31 -55 -20 0 -24 -5 -24 -30 0 -25 -4 -30 -25 -30 -24
0 -25 -3 -25 -55 0 -54 0 -55 -30 -55 -30 0 -30 -1 -30 -55 l0 -55 305 0 c324
0 313 -1 306 43 0 4 12 7 28 7 27 0 29 3 35 54 6 46 11 55 29 58 17 2 23 11
25 36 3 26 8 32 27 32 22 0 24 5 27 53 3 48 5 52 31 55 26 3 27 6 27 58 0 51
2 54 24 54 22 0 25 5 31 55 7 49 10 55 31 55 19 0 24 5 24 24 0 58 12 86 36
86 22 0 24 4 24 55 0 52 1 55 25 55 21 0 25 5 25 29 0 30 19 45 45 35 12 -5
15 4 15 50 0 52 2 56 24 56 21 0 24 6 31 55 6 50 9 55 31 55 22 0 24 3 24 54
0 52 1 55 28 58 25 3 27 7 30 56 3 47 5 52 26 52 21 0 24 6 31 55 6 50 9 55
31 55 23 0 24 3 24 60 0 33 4 60 10 60 6 0 10 -9 10 -19 0 -11 4 -22 9 -25 4
-3 6 6 3 19 -3 18 0 25 12 25 11 0 16 9 16 30 0 25 4 30 25 30 24 0 25 3 25
55 0 54 0 55 30 55 30 0 30 1 30 55 0 51 2 55 24 55 21 0 24 6 31 55 6 50 9
55 31 55 22 0 24 3 24 54 0 52 1 55 28 58 21 2 28 9 30 31 3 21 9 27 27 27 18
0 24 -6 27 -27 2 -22 9 -29 31 -31 26 -3 27 -6 27 -58 0 -51 2 -54 24 -54 19
0 25 -6 28 -27 2 -22 9 -29 31 -31 26 -3 27 -6 27 -58 0 -51 2 -54 24 -54 22
0 25 -5 31 -55 7 -49 10 -55 31 -55 19 0 24 -5 24 -24 0 -58 12 -86 36 -86 22
0 24 -4 24 -55 0 -52 1 -55 25 -55 21 0 25 -5 25 -30 0 -27 3 -30 30 -30 30 0
30 -1 30 -55 0 -51 2 -55 24 -55 24 0 36 -28 36 -86 0 -19 5 -24 25 -24 21 0
25 -5 25 -29 0 -17 4 -32 9 -35 5 -3 7 -15 4 -26 -4 -16 0 -20 21 -20 22 0 26
-4 26 -30 0 -25 4 -30 25 -30 22 0 25 -4 27 -42 0 -24 1 -49 1 -55 -1 -8 11
-13 28 -13 28 0 29 -1 29 -54 0 -52 1 -55 28 -58 25 -3 27 -6 30 -57 3 -50 4
-53 28 -48 22 4 24 1 24 -29 0 -29 3 -34 24 -34 22 0 25 -5 31 -55 6 -48 10
-55 30 -55 20 0 24 -7 30 -55 6 -50 9 -55 31 -55 21 0 24 -5 24 -35 0 -30 3
-35 24 -35 22 0 25 -5 31 -55 7 -49 10 -55 31 -55 21 0 23 -5 26 -52 3 -49 5
-53 31 -56 21 -3 27 -9 27 -28 l0 -24 266 0 265 0 -6 23 c-5 17 -4 18 4 7 14
-20 22 -9 28 39 5 35 9 41 29 41 19 0 24 -5 24 -25 0 -21 5 -25 30 -25 27 0
30 -3 30 -30 l0 -30 249 0 250 0 6 55 c7 49 10 55 31 55 22 0 24 4 24 55 0 51
2 55 24 55 22 0 25 5 31 60 6 55 9 60 31 60 22 0 24 4 24 43 0 23 3 59 6 80 6
31 11 37 30 37 23 0 24 4 24 59 0 56 1 58 24 54 24 -5 25 -3 28 53 3 56 4 59
31 62 27 3 27 4 27 83 0 77 1 79 24 79 28 0 36 16 36 76 0 40 2 44 25 44 24 0
25 3 25 55 0 48 3 55 19 55 27 0 32 12 40 93 5 64 9 72 27 75 18 3 23 12 29
58 6 49 9 54 31 54 22 0 24 3 24 55 l0 55 950 0 950 0 0 -30 c0 -27 3 -30 30
-30 l30 0 0 -79 c0 -79 0 -80 28 -83 26 -3 27 -6 30 -60 3 -54 5 -58 27 -58
24 0 25 -3 25 -55 0 -51 2 -55 24 -55 19 0 24 -6 30 -37 3 -21 6 -57 6 -80 0
-39 3 -43 24 -43 21 0 24 -5 30 -60 6 -55 9 -60 31 -60 24 0 25 -3 25 -55 0
-51 2 -55 24 -55 20 0 24 -6 30 -46 3 -26 6 -64 6 -85 0 -35 3 -39 25 -39 24
0 25 -3 25 -55 0 -51 2 -55 24 -55 21 0 25 -6 30 -40 3 -22 9 -58 12 -80 4
-30 10 -40 24 -40 15 0 19 -11 25 -60 6 -55 9 -60 31 -60 22 0 24 -4 24 -55
l0 -55 304 0 303 0 7 40 c7 45 -2 120 -15 120 -4 0 -10 -12 -12 -27 l-4 -28
-2 28 c0 16 -5 25 -11 22 -6 -4 -10 18 -10 57 0 63 0 64 -27 63 -30 0 -30 1
-32 73 -1 38 -3 42 -26 42 -24 0 -25 3 -25 55 0 49 -2 55 -24 61 -26 6 -36 40
-36 122 0 38 -2 42 -24 42 -21 0 -24 6 -31 55 -6 50 -9 55 -31 55 -23 0 -24 3
-24 60 0 56 -1 60 -24 60 -19 0 -24 6 -30 38 -3 20 -6 49 -6 65 0 21 -5 27
-22 28 -22 1 -22 1 2 9 l25 8 -26 1 c-25 1 -27 5 -33 60 -6 51 -10 60 -29 63
-19 3 -22 10 -25 61 -3 53 -5 57 -27 57 -24 0 -25 3 -25 55 0 54 0 55 -30 55
l-30 0 0 79 c0 79 0 80 -27 83 -27 3 -28 6 -31 61 -3 53 -5 57 -27 57 -24 0
-25 3 -25 55 0 52 -1 55 -25 55 -22 0 -25 5 -31 60 -6 55 -9 60 -30 60 -21 0
-24 5 -24 34 0 18 -3 54 -6 80 -6 40 -10 46 -30 46 -22 0 -24 4 -24 55 0 52
-1 55 -25 55 -22 0 -25 5 -31 60 -6 55 -9 60 -30 60 -21 0 -24 4 -24 43 0 23
-3 59 -6 80 -6 31 -11 37 -30 37 -22 0 -24 4 -24 55 0 51 -2 55 -24 55 -22 0
-25 5 -31 60 -6 55 -9 60 -31 60 -22 0 -24 4 -24 55 0 51 -2 55 -23 55 -13 0
-24 6 -25 13 -1 6 -4 42 -8 80 -6 61 -9 67 -30 67 -21 0 -23 5 -26 58 -3 54
-4 57 -30 60 -27 3 -28 6 -28 58 0 51 -1 54 -25 54 -23 0 -25 4 -25 43 0 23
-3 59 -6 80 -6 31 -11 37 -30 37 -23 0 -24 4 -24 60 0 57 -1 60 -24 60 -22 0
-25 5 -31 55 -7 49 -10 55 -31 55 -21 0 -23 5 -26 58 -3 49 -6 57 -24 60 -23
3 -34 40 -34 120 0 38 -2 42 -24 42 -21 0 -24 6 -31 55 -6 50 -9 55 -31 55
-23 0 -24 3 -24 60 0 57 -1 60 -24 60 -22 0 -25 5 -31 55 -7 51 -9 55 -34 56
-26 1 -25 2 4 9 l30 8 -27 1 c-25 1 -28 5 -28 34 0 69 -11 106 -34 109 -18 3
-21 11 -24 61 -3 53 -5 57 -27 57 -24 0 -25 3 -25 55 0 54 0 55 -30 55 l-30 0
0 79 c0 79 0 80 -27 83 -27 3 -28 6 -31 61 -3 53 -5 57 -27 57 -24 0 -25 3
-25 55 l0 55 -55 0 c-51 0 -55 -2 -55 -24z m-463 -1142 c-3 -3 -12 -4 -19 -1
-8 3 -5 6 6 6 11 1 17 -2 13 -5z m540 -96 c-3 -7 -5 -2 -5 12 0 14 2 19 5 13
2 -7 2 -19 0 -25z m35 -75 c3 -51 6 -58 24 -61 18 -3 23 -12 29 -58 6 -49 9
-54 31 -54 23 0 24 -3 24 -60 0 -56 1 -60 24 -60 19 0 24 -6 30 -37 3 -21 6
-57 6 -80 0 -39 2 -43 25 -43 24 0 25 -3 25 -54 0 -52 1 -55 28 -58 26 -3 27
-6 30 -60 3 -54 5 -58 27 -58 23 0 25 -4 25 -42 0 -24 3 -60 6 -80 6 -32 11
-38 30 -38 22 0 24 -4 24 -55 0 -51 2 -55 24 -55 22 0 25 -5 31 -60 6 -55 9
-60 31 -60 22 0 24 -4 24 -42 0 -80 11 -117 34 -120 18 -3 22 -11 26 -58 4
-48 8 -55 28 -58 20 -3 22 -9 22 -58 0 -53 0 -54 30 -54 l30 0 0 -85 0 -85
-730 0 -730 0 0 39 c0 21 3 59 6 85 6 40 10 46 30 46 22 0 24 4 24 55 0 51 2
55 24 55 22 0 25 5 31 60 6 54 9 60 30 60 22 0 24 5 27 58 2 35 7 57 15 57 6
0 15 4 20 9 4 5 3 6 -4 2 -14 -8 -27 10 -18 24 5 8 11 8 20 0 17 -14 25 8 25
71 0 45 2 49 24 49 21 0 24 5 30 60 6 55 9 60 31 60 24 0 25 3 25 55 0 51 2
55 24 55 20 0 24 6 30 46 3 26 6 64 6 85 0 35 3 39 25 39 24 0 25 3 25 55 0
51 2 55 24 55 27 0 35 25 37 114 1 28 4 41 6 29 3 -15 12 -23 24 -23 15 0 19
7 19 34 0 18 3 54 6 80 6 40 10 46 30 46 22 0 24 4 24 55 0 51 2 55 24 55 22
0 25 5 31 60 l7 60 53 0 54 0 3 -57z m-1919 -2910 c-7 -2 -19 -2 -25 0 -7 3
-2 5 12 5 14 0 19 -2 13 -5z"/>
<path d="M22360 5443 c0 -1319 3 -2415 6 -2436 l7 -37 753 0 c711 0 807 4 747
27 -39 15 37 21 297 23 146 1 292 5 325 9 52 5 60 9 63 29 3 22 6 22 138 22
l134 0 0 24 c0 19 6 24 38 30 20 3 58 6 83 6 41 0 46 2 45 23 -1 20 4 22 57
25 53 3 57 5 57 27 0 21 6 24 55 30 48 6 55 10 55 30 0 20 7 24 55 30 50 6 55
9 55 31 0 20 5 24 30 24 25 0 30 4 30 24 0 22 5 25 55 31 49 7 55 10 55 31 0
20 5 24 30 24 27 0 30 3 30 30 0 25 4 30 24 30 18 0 25 6 28 23 2 16 11 23 31
25 23 3 27 8 27 33 0 26 3 29 30 29 25 0 30 4 30 25 0 20 5 25 25 25 21 0 25
5 25 30 0 27 3 30 30 30 27 0 30 3 30 30 0 25 4 30 24 30 19 0 25 6 28 28 2
19 9 28 25 30 18 3 23 12 29 58 6 48 9 54 29 54 20 0 24 7 30 50 6 44 10 50
31 50 20 0 24 5 24 29 0 63 11 91 36 91 22 0 24 4 24 55 0 52 1 55 25 55 22 0
25 4 25 39 0 21 3 59 6 85 6 40 10 46 30 46 23 0 24 2 24 85 0 84 0 85 25 85
25 0 25 1 25 78 0 44 3 119 6 169 6 84 8 90 28 89 l21 -1 3 418 2 417 -23 0
c-23 0 -24 4 -30 83 -4 45 -7 121 -7 170 0 86 0 87 -25 87 -24 0 -24 2 -27 83
-3 75 -5 82 -24 85 -24 3 -34 40 -34 125 0 43 -2 47 -25 47 -22 0 -24 4 -27
58 -3 56 -4 57 -31 55 -16 -1 -27 3 -26 10 1 7 1 31 0 55 -1 37 -4 42 -25 42
-21 0 -24 6 -31 55 -6 49 -9 55 -30 55 -22 0 -24 5 -27 53 -3 48 -5 52 -30 55
-24 3 -28 8 -28 33 0 24 -4 29 -24 29 -19 0 -25 6 -28 28 -2 21 -9 28 -30 30
-26 3 -28 6 -28 53 0 37 -4 49 -15 49 -8 0 -15 -9 -15 -20 0 -35 -17 -21 -24
19 -5 34 -10 40 -34 44 l-27 4 30 2 c27 2 26 4 -15 14 -35 9 -46 17 -48 35 -3
18 -10 22 -38 22 -31 0 -34 2 -34 30 0 27 -3 30 -30 30 -25 0 -30 4 -30 25 0
21 -5 25 -30 25 -26 0 -30 3 -30 29 0 28 -2 29 -46 29 -52 0 -51 0 -56 27 -2
13 -13 22 -33 25 -24 4 -31 11 -33 33 -3 26 -6 27 -58 27 -50 0 -54 2 -54 24
0 19 -6 24 -37 30 -21 3 -57 6 -80 6 -39 0 -43 2 -43 25 0 23 -4 25 -47 25
-27 0 -65 3 -85 6 -32 6 -38 11 -38 30 0 24 -1 24 -111 24 -109 0 -110 0 -107
23 3 22 2 22 -182 29 -340 13 -315 10 -318 36 l-3 22 -875 0 -874 0 0 -2397z
m2020 1813 c0 -22 4 -23 83 -29 45 -4 105 -7 133 -7 46 0 51 -2 50 -22 -1 -21
4 -23 67 -26 65 -3 67 -4 68 -30 l2 -27 5 25 5 25 8 -25 7 -25 2 25 2 25 7
-25 c6 -22 13 -25 64 -28 53 -3 57 -5 57 -27 0 -18 6 -24 28 -27 21 -2 28 -9
30 -30 3 -27 6 -28 58 -28 53 0 54 0 54 -30 0 -25 4 -30 25 -30 20 0 25 -5 25
-25 0 -21 5 -25 30 -25 27 0 30 -3 30 -30 0 -27 3 -30 30 -30 25 0 30 -4 30
-25 0 -20 5 -25 25 -25 21 0 25 -5 25 -30 0 -27 3 -30 30 -30 30 0 30 -1 30
-55 0 -52 1 -55 25 -55 21 0 25 -5 25 -30 0 -27 3 -30 30 -30 30 0 30 -1 30
-55 0 -51 2 -55 24 -55 22 0 25 -5 31 -60 6 -55 9 -60 31 -60 23 0 24 -2 24
-80 0 -77 1 -80 24 -80 20 0 24 -6 30 -46 3 -26 6 -89 6 -140 0 -94 0 -94 25
-94 l25 0 0 -476 0 -476 -25 4 -25 5 -2 -91 c-1 -50 -2 -102 -3 -116 0 -17 -7
-26 -22 -28 -25 -4 -33 -28 -33 -108 0 -60 -1 -61 -24 -57 -24 5 -25 3 -28
-53 -3 -56 -4 -59 -30 -62 -27 -3 -28 -6 -28 -58 0 -51 -2 -54 -24 -54 -22 0
-25 -5 -31 -55 -7 -49 -10 -55 -31 -55 -20 0 -24 -5 -24 -30 0 -25 -4 -30 -24
-30 -21 0 -25 -6 -31 -50 -6 -44 -10 -50 -30 -50 -18 0 -25 -7 -30 -30 -5 -23
-12 -30 -31 -30 -20 0 -24 -5 -24 -30 0 -27 -3 -30 -30 -30 -25 0 -30 -4 -30
-24 0 -21 -6 -25 -50 -31 -44 -6 -50 -10 -50 -31 0 -20 -5 -24 -29 -24 -25 0
-30 -4 -33 -27 -3 -27 -6 -28 -62 -31 -53 -3 -58 -5 -53 -23 6 -23 -2 -28 -63
-32 -40 -3 -45 -6 -48 -30 l-3 -27 -110 0 -109 0 0 -25 c0 -14 -3 -26 -7 -26
-5 -1 -93 -4 -198 -8 -189 -6 -190 -6 -189 -28 l1 -23 -614 0 -613 0 0 1875 0
1875 725 0 725 0 0 -24z"/>
<path d="M32968 6823 c6 -2 18 -2 25 0 6 3 1 5 -13 5 -14 0 -19 -2 -12 -5z"/>
<path d="M26085 6640 c3 -5 8 -10 11 -10 2 0 4 5 4 10 0 6 -5 10 -11 10 -5 0
-7 -4 -4 -10z"/>
</g>
</svg>
